<svg width="52" height="53" viewBox="0 0 52 53" fill="none" xmlns="http://www.w3.org/2000/svg">
<rect x="1" y="1" width="50" height="50" rx="25" fill="#FFD217" stroke="#E5E5E5"/>
<g clip-path="url(#clip0_2_2321)">
<path d="M27.3936 13.4392L27.3927 13.4399L18.3604 20.6656L18.2782 20.7314H18.173H13.8571C12.9996 20.7314 12.3 21.431 12.3 22.2884V29.7167C12.3 30.5756 12.9994 31.2737 13.8571 31.2737H18.173H18.2782L18.3604 31.3395L27.3901 38.5641C27.3904 38.5642 27.3906 38.5644 27.3908 38.5646C27.5058 38.6552 27.6458 38.7019 27.7856 38.7019C27.8775 38.7019 27.9705 38.681 28.0581 38.6388L28.0585 38.6387C28.2759 38.5342 28.4141 38.3144 28.4141 38.0734L28.4141 13.9321L28.4141 13.9316M27.3936 13.4392L28.7141 13.9316H28.4141M27.3936 13.4392C27.5802 13.2887 27.8368 13.2594 28.0579 13.3646M27.3936 13.4392L28.0579 13.3646M28.4141 13.9316C28.4135 13.6902 28.2755 13.4703 28.0579 13.3646M28.4141 13.9316L28.0579 13.3646" fill="white" stroke="white" stroke-width="0.6"/>
<path d="M33.4135 19.4341C33.0479 19.0737 32.4606 19.0795 32.1008 19.4416C31.7404 19.8072 31.7444 20.3945 32.1083 20.7566C33.5121 22.1419 34.2846 24.0048 34.2846 26.0011C34.2846 27.9974 33.5121 29.8603 32.1083 31.2455C31.7444 31.6042 31.7404 32.1926 32.1008 32.5583C32.283 32.7422 32.5221 32.8333 32.76 32.8333C32.9956 32.8333 33.2318 32.744 33.4135 32.5641C35.1742 30.8306 36.1416 28.4983 36.1416 26.0005C36.1416 23.5028 35.1742 21.1704 33.4135 19.4341Z" fill="white"/>
<path d="M36.0338 16.8173C35.6682 16.4552 35.0809 16.4587 34.7188 16.8231C34.3584 17.187 34.3625 17.776 34.7246 18.1358C36.8364 20.2285 37.9988 23.0216 37.9988 26.0005C37.9988 28.9793 36.8364 31.7701 34.7246 33.8634C34.3625 34.2255 34.359 34.814 34.7188 35.1784C34.9028 35.3606 35.1401 35.4512 35.3781 35.4512C35.6137 35.4512 35.8516 35.3618 36.0338 35.1819C38.5002 32.7399 39.8559 29.479 39.8559 26.0005C39.8559 22.522 38.5002 19.2611 36.0338 16.8173Z" fill="white"/>
</g>
<defs>
<clipPath id="clip0_2_2321">
<rect width="27.8559" height="26" fill="white" transform="translate(12 13)"/>
</clipPath>
</defs>
</svg>
