<svg width="25" height="25" viewBox="0 0 25 25" fill="none" xmlns="http://www.w3.org/2000/svg">
<path d="M12.5 0C5.5918 0 0 5.59082 0 12.5C0 19.4082 5.59082 25 12.5 25C19.4082 25 25 19.4092 25 12.5C25 5.5918 19.4092 0 12.5 0ZM12.5 23.0469C6.6709 23.0469 1.95312 18.3296 1.95312 12.5C1.95312 6.6709 6.67041 1.95312 12.5 1.95312C18.3291 1.95312 23.0469 6.67041 23.0469 12.5C23.0469 18.3291 18.3296 23.0469 12.5 23.0469Z" fill="#E52730"/>
<g clip-path="url(#clip0_2_812)">
<path d="M12.4979 10.9812C11.9016 10.385 11.3219 9.80525 10.7446 9.22791C10.3305 8.81382 9.9164 8.39974 9.50232 7.98566C9.05511 7.53846 8.38767 7.52443 7.95917 7.9482C7.5283 8.37907 7.53287 9.04177 7.97771 9.49134C8.90525 10.4236 9.83752 11.3512 10.7698 12.2834C10.836 12.3497 10.9023 12.4159 10.9828 12.4964C10.9094 12.5698 10.8431 12.6361 10.7768 12.7024C9.84166 13.6375 8.90416 14.5702 7.97613 15.5125C7.8554 15.6332 7.75358 15.7965 7.69674 15.9575C7.52857 16.4238 7.72488 16.9326 8.14374 17.1905C8.56969 17.4555 9.10697 17.3961 9.46445 17.0387C10.4304 16.0775 11.3892 15.114 12.3527 14.1504C12.3953 14.1078 12.4379 14.0652 12.4947 14.0084C12.5492 14.0628 12.5941 14.1078 12.6414 14.1551C13.6045 15.1181 14.5628 16.0811 15.5305 17.0394C15.8547 17.3589 16.2476 17.4392 16.6736 17.2735C17.0926 17.11 17.3175 16.7857 17.3508 16.3408C17.3769 16.0023 17.2444 15.7231 17.0078 15.4864C16.0519 14.5352 15.1007 13.5793 14.1448 12.6234C14.1069 12.5855 14.0667 12.5453 14.0146 12.4932C14.0643 12.4435 14.1069 12.4009 14.1472 12.3607C15.1107 11.3971 16.0719 10.4359 17.0354 9.47241C17.3763 9.1315 17.4522 8.64392 17.2417 8.22506C17.0335 7.81329 16.591 7.57909 16.1318 7.65021C15.888 7.68578 15.6797 7.79944 15.5045 7.97463C14.5836 8.90029 13.6579 9.82121 12.7346 10.7445C12.6612 10.8179 12.5879 10.8913 12.4979 10.9812Z" fill="#E52730"/>
</g>
<defs>
<clipPath id="clip0_2_812">
<rect width="12.8564" height="12.8564" fill="white" transform="matrix(-0.707107 -0.707107 -0.707107 0.707107 21.5912 12.5)"/>
</clipPath>
</defs>
</svg>
