<svg width="724" height="107" viewBox="0 0 724 107" fill="none" xmlns="http://www.w3.org/2000/svg">
<line x1="23" y1="52.5" x2="704" y2="52.5" stroke="#FFD217" stroke-width="3"/>
<g filter="url(#filter0_d_2_2285)">
<circle cx="53.5" cy="53.5" r="41.5" fill="white"/>
<circle cx="53.5" cy="53.5" r="40" stroke="#6AC3DB" stroke-width="3"/>
</g>
<path d="M53.0959 72.1596C53.2879 77.0556 58.9519 76.6716 58.9519 71.9676V35.6796C58.9519 30.6876 54.0559 29.9196 46.7599 31.4556C43.1119 32.3196 43.6879 39.2316 47.8159 38.1756C54.0559 36.6396 52.9999 40.0956 52.9999 42.7836C52.9999 50.0796 52.7119 57.3756 53.0959 72.1596Z" fill="#6AC3DB"/>
<g filter="url(#filter1_d_2_2285)">
<circle cx="157" cy="54" r="30" fill="white"/>
<circle cx="157" cy="54" r="29.5" stroke="#E5E5E5"/>
</g>
<path d="M153.24 65H162.264C164.472 65 164.472 61.64 162.264 61.64H154.728C153.624 61.64 155.4 59.864 156.312 58.904C159.912 55.016 162.264 52.952 162.552 49.64C163.176 43.496 156.264 41.192 149.736 42.872C148.056 43.352 148.488 46.328 150.216 46.136C155.64 45.464 159.576 46.328 159.288 49.448C159.144 52.232 153.048 57.656 150.312 60.872C148.008 63.704 149.928 65 153.24 65Z" fill="#6A6A6D"/>
<g filter="url(#filter2_d_2_2285)">
<circle cx="262" cy="54" r="30" fill="white"/>
<circle cx="262" cy="54" r="29.5" stroke="#E5E5E5"/>
</g>
<path d="M255.84 64.664C260.688 65.72 267.312 64.136 267.312 58.952C267.312 56.456 266.448 54.488 264.768 53C266.88 51.416 267.024 49.736 267.024 48.824C267.024 43.352 261.984 40.808 254.736 42.488C253.152 42.728 253.392 45.752 255.312 45.32C261.168 44.168 263.664 45.752 263.664 48.776C263.664 51.56 262.464 51.8 256.656 51.8C254.784 51.8 254.688 54.632 256.656 54.632C262.32 54.632 264.432 55.16 264.432 58.76C264.432 61.544 259.728 62.072 256.272 61.64C253.824 61.352 254.16 64.28 255.84 64.664Z" fill="#6A6A6D"/>
<g filter="url(#filter3_d_2_2285)">
<circle cx="367" cy="54" r="30" fill="white"/>
<circle cx="367" cy="54" r="29.5" stroke="#E5E5E5"/>
</g>
<path d="M371.88 62.792C371.736 65.624 374.952 66.248 374.952 61.784C374.952 56.888 375.096 55.016 374.856 46.184C374.76 43.544 374.472 41.624 372.552 42.344C371.544 42.728 371.688 44.888 371.688 48.776C371.688 49.688 371.736 50.888 371.736 52.088H367.896C363.336 52.088 361.608 51.512 361.944 45.224C361.992 43.592 362.424 42.296 360.36 42.296C359.304 42.296 359.064 43.352 358.824 45.32C357.624 54.152 363.24 55.544 368.136 55.544H371.832C371.88 58.568 371.928 61.64 371.88 62.792Z" fill="#6A6A6D"/>
<g filter="url(#filter4_d_2_2285)">
<circle cx="472" cy="54" r="30" fill="white"/>
<circle cx="472" cy="54" r="29.5" stroke="#E5E5E5"/>
</g>
<path d="M467.024 64.664C474.416 66.248 478.448 63.464 478.4 58.376C478.448 54.008 476.528 51.8 469.328 51.8C469.28 50.216 469.376 48.44 469.616 47.768C470.288 45.8 470.96 45.224 476.672 45.704C478.352 45.8 479.744 42.824 476.672 42.584C468.944 41.96 467.648 43.16 466.688 45.992C466.304 47.24 466.112 50.264 466.496 52.808C466.64 53.768 466.688 54.632 467.84 54.632C473.168 54.632 475.616 55.688 475.568 58.376C475.616 61.496 472.736 62.312 467.456 61.64C465.008 61.352 465.344 64.28 467.024 64.664Z" fill="#6A6A6D"/>
<g filter="url(#filter5_d_2_2285)">
<circle cx="577" cy="54" r="30" fill="white"/>
<circle cx="577" cy="54" r="29.5" stroke="#E5E5E5"/>
</g>
<path d="M575.256 65.24C585.096 65.384 585.528 51.368 575.64 50.744C574.776 50.648 573.816 50.792 572.808 50.984C573.96 47.672 578.808 45.08 581.4 44.648C583.032 44.408 582.648 41.336 580.2 41.72C569.976 43.256 568.68 51.8 568.68 57.752C568.92 63.032 571.992 65.24 575.256 65.24ZM575.256 62.072C571.608 61.928 571.656 57.992 572.04 54.008C573.432 53.864 574.584 53.864 575.544 53.96C580.68 54.824 580.584 62.264 575.256 62.072Z" fill="#6A6A6D"/>
<g filter="url(#filter6_d_2_2285)">
<circle cx="682" cy="54" r="30" fill="white"/>
<circle cx="682" cy="54" r="29.5" stroke="#E5E5E5"/>
</g>
<path d="M680.832 63.944C684.384 57.08 688.176 49.88 687.696 45.08C687.36 42.104 682.992 42.296 675.312 42.488C672.912 42.584 673.392 45.848 675.312 45.848C682.464 45.848 684.384 45.32 684.432 47.528C684.528 48.968 681.024 56.12 678.096 62.456C676.992 64.856 679.776 65.912 680.832 63.944Z" fill="#6A6A6D"/>
<defs>
<filter id="filter0_d_2_2285" x="0" y="0" width="107" height="107" filterUnits="userSpaceOnUse" color-interpolation-filters="sRGB">
<feFlood flood-opacity="0" result="BackgroundImageFix"/>
<feColorMatrix in="SourceAlpha" type="matrix" values="0 0 0 0 0 0 0 0 0 0 0 0 0 0 0 0 0 0 127 0" result="hardAlpha"/>
<feMorphology radius="2" operator="dilate" in="SourceAlpha" result="effect1_dropShadow_2_2285"/>
<feOffset/>
<feGaussianBlur stdDeviation="5"/>
<feColorMatrix type="matrix" values="0 0 0 0 0.144774 0 0 0 0 0.153816 0 0 0 0 0.150484 0 0 0 0.047476 0"/>
<feBlend mode="normal" in2="BackgroundImageFix" result="effect1_dropShadow_2_2285"/>
<feBlend mode="normal" in="SourceGraphic" in2="effect1_dropShadow_2_2285" result="shape"/>
</filter>
<filter id="filter1_d_2_2285" x="115" y="12" width="84" height="84" filterUnits="userSpaceOnUse" color-interpolation-filters="sRGB">
<feFlood flood-opacity="0" result="BackgroundImageFix"/>
<feColorMatrix in="SourceAlpha" type="matrix" values="0 0 0 0 0 0 0 0 0 0 0 0 0 0 0 0 0 0 127 0" result="hardAlpha"/>
<feMorphology radius="2" operator="dilate" in="SourceAlpha" result="effect1_dropShadow_2_2285"/>
<feOffset/>
<feGaussianBlur stdDeviation="5"/>
<feColorMatrix type="matrix" values="0 0 0 0 0.144774 0 0 0 0 0.153816 0 0 0 0 0.150484 0 0 0 0.047476 0"/>
<feBlend mode="normal" in2="BackgroundImageFix" result="effect1_dropShadow_2_2285"/>
<feBlend mode="normal" in="SourceGraphic" in2="effect1_dropShadow_2_2285" result="shape"/>
</filter>
<filter id="filter2_d_2_2285" x="220" y="12" width="84" height="84" filterUnits="userSpaceOnUse" color-interpolation-filters="sRGB">
<feFlood flood-opacity="0" result="BackgroundImageFix"/>
<feColorMatrix in="SourceAlpha" type="matrix" values="0 0 0 0 0 0 0 0 0 0 0 0 0 0 0 0 0 0 127 0" result="hardAlpha"/>
<feMorphology radius="2" operator="dilate" in="SourceAlpha" result="effect1_dropShadow_2_2285"/>
<feOffset/>
<feGaussianBlur stdDeviation="5"/>
<feColorMatrix type="matrix" values="0 0 0 0 0.144774 0 0 0 0 0.153816 0 0 0 0 0.150484 0 0 0 0.047476 0"/>
<feBlend mode="normal" in2="BackgroundImageFix" result="effect1_dropShadow_2_2285"/>
<feBlend mode="normal" in="SourceGraphic" in2="effect1_dropShadow_2_2285" result="shape"/>
</filter>
<filter id="filter3_d_2_2285" x="325" y="12" width="84" height="84" filterUnits="userSpaceOnUse" color-interpolation-filters="sRGB">
<feFlood flood-opacity="0" result="BackgroundImageFix"/>
<feColorMatrix in="SourceAlpha" type="matrix" values="0 0 0 0 0 0 0 0 0 0 0 0 0 0 0 0 0 0 127 0" result="hardAlpha"/>
<feMorphology radius="2" operator="dilate" in="SourceAlpha" result="effect1_dropShadow_2_2285"/>
<feOffset/>
<feGaussianBlur stdDeviation="5"/>
<feColorMatrix type="matrix" values="0 0 0 0 0.144774 0 0 0 0 0.153816 0 0 0 0 0.150484 0 0 0 0.047476 0"/>
<feBlend mode="normal" in2="BackgroundImageFix" result="effect1_dropShadow_2_2285"/>
<feBlend mode="normal" in="SourceGraphic" in2="effect1_dropShadow_2_2285" result="shape"/>
</filter>
<filter id="filter4_d_2_2285" x="430" y="12" width="84" height="84" filterUnits="userSpaceOnUse" color-interpolation-filters="sRGB">
<feFlood flood-opacity="0" result="BackgroundImageFix"/>
<feColorMatrix in="SourceAlpha" type="matrix" values="0 0 0 0 0 0 0 0 0 0 0 0 0 0 0 0 0 0 127 0" result="hardAlpha"/>
<feMorphology radius="2" operator="dilate" in="SourceAlpha" result="effect1_dropShadow_2_2285"/>
<feOffset/>
<feGaussianBlur stdDeviation="5"/>
<feColorMatrix type="matrix" values="0 0 0 0 0.144774 0 0 0 0 0.153816 0 0 0 0 0.150484 0 0 0 0.047476 0"/>
<feBlend mode="normal" in2="BackgroundImageFix" result="effect1_dropShadow_2_2285"/>
<feBlend mode="normal" in="SourceGraphic" in2="effect1_dropShadow_2_2285" result="shape"/>
</filter>
<filter id="filter5_d_2_2285" x="535" y="12" width="84" height="84" filterUnits="userSpaceOnUse" color-interpolation-filters="sRGB">
<feFlood flood-opacity="0" result="BackgroundImageFix"/>
<feColorMatrix in="SourceAlpha" type="matrix" values="0 0 0 0 0 0 0 0 0 0 0 0 0 0 0 0 0 0 127 0" result="hardAlpha"/>
<feMorphology radius="2" operator="dilate" in="SourceAlpha" result="effect1_dropShadow_2_2285"/>
<feOffset/>
<feGaussianBlur stdDeviation="5"/>
<feColorMatrix type="matrix" values="0 0 0 0 0.144774 0 0 0 0 0.153816 0 0 0 0 0.150484 0 0 0 0.047476 0"/>
<feBlend mode="normal" in2="BackgroundImageFix" result="effect1_dropShadow_2_2285"/>
<feBlend mode="normal" in="SourceGraphic" in2="effect1_dropShadow_2_2285" result="shape"/>
</filter>
<filter id="filter6_d_2_2285" x="640" y="12" width="84" height="84" filterUnits="userSpaceOnUse" color-interpolation-filters="sRGB">
<feFlood flood-opacity="0" result="BackgroundImageFix"/>
<feColorMatrix in="SourceAlpha" type="matrix" values="0 0 0 0 0 0 0 0 0 0 0 0 0 0 0 0 0 0 127 0" result="hardAlpha"/>
<feMorphology radius="2" operator="dilate" in="SourceAlpha" result="effect1_dropShadow_2_2285"/>
<feOffset/>
<feGaussianBlur stdDeviation="5"/>
<feColorMatrix type="matrix" values="0 0 0 0 0.144774 0 0 0 0 0.153816 0 0 0 0 0.150484 0 0 0 0.047476 0"/>
<feBlend mode="normal" in2="BackgroundImageFix" result="effect1_dropShadow_2_2285"/>
<feBlend mode="normal" in="SourceGraphic" in2="effect1_dropShadow_2_2285" result="shape"/>
</filter>
</defs>
</svg>
