<svg width="735" height="433" viewBox="0 0 735 433" fill="none" xmlns="http://www.w3.org/2000/svg">
<path d="M18.24 303.496C17.024 312.52 13.76 317.512 12.8 317.512C11.2 317.512 6.912 311.624 6.336 305.032C6.144 303.432 5.376 303.112 4.416 303.112C3.456 303.112 2.432 304.2 2.24 305.416C1.344 311.432 6.976 319.176 11.072 321.416V329.928C11.072 332.104 11.904 333.192 12.8 333.128C13.76 333.128 15.296 332.296 15.296 331.08C15.232 326.664 15.232 323.528 15.232 321.096C18.176 318.856 21.376 312.584 22.464 305.16C22.912 302.28 18.496 301.384 18.24 303.496ZM32.5345 332.68C47.8945 332.68 43.9265 309.576 32.9825 309.896C19.5425 310.344 18.1985 332.68 32.5345 332.68ZM32.5985 328.52C24.6625 328.52 23.8945 314.376 32.9825 314.376C38.9985 314.376 41.4305 328.52 32.5985 328.52ZM55.7355 333C59.5755 333 61.8795 331.272 62.7755 330.056C62.8395 331.464 62.7755 330.568 62.8395 331.656C63.0315 333.64 66.9995 333.832 66.9995 331.272C66.9995 327.496 66.9355 320.072 66.8075 315.272C66.7435 311.688 66.4875 309.512 63.7995 310.088C61.8155 310.6 61.9435 313.544 61.9435 322.312C61.9435 326.792 58.8715 328.392 55.6715 328.392C50.4875 328.392 49.8475 321.608 50.3595 313.928C50.4875 311.816 50.3595 310.088 47.5435 310.088C46.0715 310.088 45.8155 311.432 45.4955 314.056C43.9595 325.512 48.1195 333 55.7355 333ZM81.863 310.344C79.303 310.792 79.303 314.504 82.375 314.312C90.567 313.928 94.279 315.272 94.279 319.496C87.303 317.448 79.431 319.304 79.431 325.384C79.431 336.136 98.183 334.92 98.183 325.384V319.752C98.183 309.896 90.055 308.872 81.863 310.344ZM84.487 325.064C84.487 322.312 88.263 321.864 94.279 323.144V323.848C94.279 331.016 84.487 329.928 84.487 325.064ZM121.67 333C123.142 333 123.717 331.592 123.717 329.032C123.717 312.84 117.509 309.768 113.477 309.896C109.637 309.896 107.269 311.624 106.437 312.776C106.373 311.432 106.437 310.92 106.373 309.768C106.181 307.848 102.213 307.656 102.213 310.216C102.213 313.928 102.277 322.952 102.405 327.816C102.469 331.336 102.725 333.512 105.413 332.872C107.397 332.488 107.269 329.544 107.269 324.36C107.269 317.32 109.637 314.888 111.877 314.44C115.781 313.928 117.83 315.464 118.853 329.096C119.045 331.272 118.853 333 121.67 333ZM128.832 331.464C142.593 336.968 149.185 327.304 136.512 320.008C129.6 316.04 134.592 312.584 140.993 314.44C142.08 314.632 142.913 314.568 143.233 313.8C143.617 312.904 143.425 311.56 142.401 311.112C131.009 306.376 122.112 316.616 134.72 323.4C140.673 326.6 139.457 331.272 130.049 327.624C127.872 326.792 126.976 330.632 128.832 331.464ZM158.539 332.936C160.971 333.064 164.235 331.912 166.411 328.328C168.587 331.912 171.851 333.064 174.283 332.936C180.491 332.744 186.443 329.8 185.291 315.144C185.035 311.56 184.715 309.384 182.027 309.96C180.107 310.472 180.363 313.416 180.491 318.6C180.683 325.512 178.059 327.944 175.819 328.328C171.979 328.84 168.843 326.536 168.843 317.512C168.843 313.608 168.203 312.52 166.411 312.52C164.939 312.52 164.171 313.224 164.171 317.256C164.171 326.856 160.907 328.84 157.003 328.328C154.763 327.944 152.267 325.512 152.331 318.6C152.395 313.544 152.651 310.6 150.731 310.152C147.979 309.576 147.659 311.688 147.467 315.144C146.763 327.24 151.435 332.744 158.539 332.936ZM208.825 315.4C207.481 311.816 203.769 309.832 200.505 309.832C193.081 309.832 189.305 316.104 189.561 322.184C189.945 330.504 197.753 334.472 205.113 332.488C207.481 331.848 207.289 328.52 203.961 328.52C199.225 328.52 195.321 326.92 194.233 322.696C204.153 324.68 211.257 321.928 208.825 315.4ZM194.297 318.28C195.897 313.544 203.385 312.328 204.793 316.616C205.625 319.048 199.673 319.688 194.297 318.28ZM216.418 332.872C218.402 332.488 218.274 329.544 218.274 324.36C218.274 317.384 220.642 314.952 222.882 314.504C224.162 314.312 225.314 314.44 226.274 314.952C228.066 315.976 231.202 312.712 227.746 310.536C226.722 309.96 225.506 309.96 224.482 309.96C220.642 309.96 218.274 311.688 217.442 312.84C217.378 311.496 217.442 310.984 217.378 309.832C217.186 307.912 213.218 307.72 213.218 310.28C213.218 313.992 213.282 322.952 213.41 327.816C213.474 331.336 213.73 333.512 216.418 332.872ZM251.702 315.4C250.358 311.816 246.646 309.832 243.382 309.832C235.958 309.832 232.182 316.104 232.438 322.184C232.822 330.504 240.63 334.472 247.99 332.488C250.358 331.848 250.166 328.52 246.838 328.52C242.102 328.52 238.198 326.92 237.11 322.696C247.03 324.68 254.134 321.928 251.702 315.4ZM237.174 318.28C238.774 313.544 246.262 312.328 247.67 316.616C248.502 319.048 242.55 319.688 237.174 318.28ZM275.68 305.032C275.68 301.896 274.528 301.064 273.632 301.064C271.776 301.064 271.392 301.576 271.328 304.648V310.664C270.112 310.152 268.512 309.832 267.04 309.832C261.664 309.832 255.968 312.52 255.968 322.44C255.968 328.392 258.784 333 266.208 333C274.528 333 275.744 330.824 275.744 321.928C275.744 314.504 275.68 311.752 275.68 305.032ZM265.76 328.84C261.984 328.84 260.448 326.344 260.448 322.44C260.448 315.528 263.648 314.248 266.912 314.248C268.768 314.312 270.368 314.568 271.328 315.016C271.392 319.176 271.392 323.08 271.392 323.656C271.392 328.84 270.048 328.84 265.76 328.84ZM296.737 332.68C312.097 332.68 308.129 309.576 297.185 309.896C283.745 310.344 282.401 332.68 296.737 332.68ZM296.801 328.52C288.865 328.52 288.097 314.376 297.185 314.376C303.201 314.376 305.633 328.52 296.801 328.52ZM328.962 333C330.434 333 331.01 331.592 331.01 329.032C331.01 312.84 324.802 309.768 320.77 309.896C316.93 309.896 314.562 311.624 313.73 312.776C313.666 311.432 313.73 310.92 313.666 309.768C313.474 307.848 309.506 307.656 309.506 310.216C309.506 313.928 309.57 322.952 309.698 327.816C309.762 331.336 310.018 333.512 312.706 332.872C314.69 332.488 314.562 329.544 314.562 324.36C314.562 317.32 316.93 314.888 319.17 314.44C323.074 313.928 325.122 315.464 326.146 329.096C326.338 331.272 326.146 333 328.962 333ZM337.725 333.128C338.557 333.192 339.773 332.104 339.773 329.928C339.837 322.312 339.837 310.728 339.069 304.008C338.813 301.96 335.101 302.664 335.101 304.712C334.973 311.112 335.485 323.144 335.165 331.08C335.165 332.296 336.701 333.128 337.725 333.128ZM359.182 342.984C364.366 341.832 365.71 333.896 365.454 324.744L365.198 315.272C365.07 311.688 364.878 309.512 362.19 310.088C360.206 310.6 360.334 313.544 360.398 322.312C360.462 326.792 357.326 328.392 354.126 328.392C349.326 328.392 348.238 321.608 348.75 313.928C348.75 311.816 348.75 310.088 345.934 310.088C344.462 310.088 344.206 311.432 343.886 314.056C342.35 325.512 346.574 333 354.19 333C357.454 333 359.694 331.656 360.782 330.632C360.526 335.624 359.758 338.376 357.326 339.016C356.046 339.336 355.598 341.384 356.366 342.536C356.878 343.112 357.966 343.176 359.182 342.984Z" fill="black"/>
<path d="M575.656 333C578.984 332.744 579.112 328.392 576.232 328.712C571.176 329.224 567.656 327.368 567.656 321.672C567.656 316.808 569.768 314.184 574.952 314.824C578.408 315.272 578.92 310.664 576.168 310.088C569.128 308.552 563.176 313.608 563.176 321.672C563.176 329.8 568.04 333.64 575.656 333ZM590.847 332.68C606.207 332.68 602.239 309.576 591.295 309.896C577.855 310.344 576.511 332.68 590.847 332.68ZM590.911 328.52C582.975 328.52 582.207 314.376 591.295 314.376C597.311 314.376 599.743 328.52 590.911 328.52ZM606.816 332.872C608.8 332.488 608.672 329.544 608.672 324.36C608.672 317.384 611.04 314.952 613.28 314.504C614.56 314.312 615.712 314.44 616.672 314.952C618.464 315.976 621.6 312.712 618.144 310.536C617.12 309.96 615.904 309.96 614.88 309.96C611.04 309.96 608.672 311.688 607.84 312.84C607.776 311.496 607.84 310.984 607.776 309.832C607.584 307.912 603.616 307.72 603.616 310.28C603.616 313.992 603.68 322.952 603.808 327.816C603.872 331.336 604.128 333.512 606.816 332.872ZM626.036 332.872C628.02 332.488 627.892 329.544 627.892 324.36C627.892 317.384 630.26 314.952 632.5 314.504C633.78 314.312 634.932 314.44 635.892 314.952C637.684 315.976 640.82 312.712 637.364 310.536C636.34 309.96 635.124 309.96 634.1 309.96C630.26 309.96 627.892 311.688 627.06 312.84C626.996 311.496 627.06 310.984 626.996 309.832C626.804 307.912 622.836 307.72 622.836 310.28C622.836 313.992 622.9 322.952 623.028 327.816C623.092 331.336 623.348 333.512 626.036 332.872ZM661.32 315.4C659.976 311.816 656.264 309.832 653 309.832C645.576 309.832 641.8 316.104 642.056 322.184C642.44 330.504 650.248 334.472 657.608 332.488C659.976 331.848 659.784 328.52 656.456 328.52C651.72 328.52 647.816 326.92 646.728 322.696C656.648 324.68 663.752 321.928 661.32 315.4ZM646.792 318.28C648.392 313.544 655.88 312.328 657.288 316.616C658.12 319.048 652.168 319.688 646.792 318.28ZM678.193 333C681.521 332.744 681.649 328.392 678.769 328.712C673.713 329.224 670.193 327.368 670.193 321.672C670.193 316.808 672.305 314.184 677.489 314.824C680.945 315.272 681.457 310.664 678.705 310.088C671.665 308.552 665.713 313.608 665.713 321.672C665.713 329.8 670.577 333.64 678.193 333ZM697.545 314.44C699.593 313.928 699.721 310.6 697.545 310.6C696.841 310.6 695.241 310.536 693.512 310.408C693.512 308.296 693.576 306.056 693.641 303.624C693.641 300.552 689.865 300.232 689.673 302.6C689.417 305.352 689.161 307.912 689.032 310.28C687.368 310.28 685.96 310.28 685.192 310.472C683.656 310.856 684.04 314.056 685.192 314.12C686.344 314.248 687.561 314.312 688.776 314.376C688.457 325.64 690.056 331.912 695.049 333C696.265 333.32 697.352 333.192 697.865 332.552C698.632 331.464 698.185 329.352 696.905 329.032C693.897 328.264 693.385 323.016 693.449 314.504C695.561 314.568 697.161 314.504 697.545 314.44ZM704.965 333.128C705.797 333.192 707.013 332.104 707.013 329.928C707.077 322.312 707.077 310.728 706.309 304.008C706.053 301.96 702.341 302.664 702.341 304.712C702.213 311.112 702.725 323.144 702.405 331.08C702.405 332.296 703.941 333.128 704.965 333.128ZM726.422 342.984C731.606 341.832 732.95 333.896 732.694 324.744L732.438 315.272C732.31 311.688 732.118 309.512 729.43 310.088C727.446 310.6 727.574 313.544 727.638 322.312C727.702 326.792 724.566 328.392 721.366 328.392C716.566 328.392 715.478 321.608 715.99 313.928C715.99 311.816 715.99 310.088 713.174 310.088C711.702 310.088 711.446 311.432 711.126 314.056C709.59 325.512 713.814 333 721.43 333C724.694 333 726.934 331.656 728.022 330.632C727.766 335.624 726.998 338.376 724.566 339.016C723.286 339.336 722.838 341.384 723.606 342.536C724.118 343.112 725.206 343.176 726.422 342.984Z" fill="black"/>
<path d="M412.287 302.304C418.479 299.136 423.375 294.816 423.375 287.904C423.087 259.968 380.319 263.424 380.319 287.04C380.319 295.968 385.359 300.288 391.695 302.88C386.367 305.904 381.759 309.792 380.751 315.84C376.719 341.76 424.959 343.2 424.959 318.144C424.959 310.224 419.199 305.76 412.287 302.304ZM390.111 286.032C390.111 274.368 414.015 273.792 414.015 287.328C414.015 292.224 408.831 295.104 402.495 297.984C395.727 294.96 390.111 291.792 390.111 286.032ZM390.111 315.552C391.119 311.664 396.879 309.216 403.215 306.48C410.127 308.496 415.743 310.656 415.743 316.704C415.743 329.52 386.223 329.52 390.111 315.552ZM458.359 336C475.063 336 482.839 326.208 482.839 304.176C482.839 276.672 471.751 268.032 458.791 268.032C442.518 268.032 434.598 276.672 434.742 304.176C435.03 326.208 443.238 336 458.359 336ZM458.791 326.064C449.575 326.064 444.678 321.168 444.678 304.176C444.678 281.712 449.719 278.112 458.791 278.112C465.415 278.112 471.751 281.568 471.751 304.176C471.751 321.024 466.998 326.064 458.791 326.064ZM503.769 333.696C514.713 311.952 517.593 307.344 534.873 275.808C538.617 269.472 532.713 264.144 528.393 272.352C519.465 289.92 510.969 303.888 498.441 329.808C494.985 336.72 501.465 338.016 503.769 333.696ZM501.465 293.808C507.801 293.808 510.825 290.208 510.825 282C510.825 271.488 506.505 268.32 501.897 268.32C495.705 268.32 492.537 271.488 492.681 282C492.681 290.208 495.849 293.808 501.465 293.808ZM501.609 288.624C498.729 288.624 497.289 287.184 497.289 282C497.289 274.656 498.873 273.504 501.609 273.504C503.769 273.504 505.785 274.656 505.785 282C505.785 287.04 504.201 288.624 501.609 288.624ZM531.561 336C538.041 336 540.921 332.544 540.921 324.048C540.921 313.536 536.601 310.512 531.993 310.512C525.801 310.512 522.633 313.536 522.921 324.048C522.921 332.544 525.945 336 531.561 336ZM531.849 330.96C528.825 330.96 527.529 329.376 527.529 324.048C527.529 316.992 529.113 315.84 531.849 315.84C533.865 315.84 535.881 316.992 535.881 324.048C535.881 329.088 534.297 330.96 531.849 330.96Z" fill="#E52730"/>
<path d="M35.0984 414.552H35.3864C46.2824 413.976 45.0824 400.248 34.4264 400.248C32.0264 400.248 30.5384 400.488 29.6264 401.4C27.9944 403.032 27.9464 405.528 27.9464 409.128C27.9464 414.072 28.0904 420.552 28.0904 420.936C27.8504 424.248 31.1144 423.144 31.1144 421.608C31.1144 419.832 31.1624 417.144 31.2104 415.656C33.6584 418.92 39.5624 422.52 40.0424 422.856C41.4344 423.72 43.2584 421.944 42.1064 420.792C41.3864 420.072 37.7864 416.856 35.0984 414.552ZM34.4744 403.416C40.5704 403.416 41.6744 411.24 35.3384 411.72H31.2104C30.8264 403.416 30.8264 403.416 34.4744 403.416ZM60.3956 409.8C59.3876 407.112 56.6036 405.624 54.1556 405.624C48.5876 405.624 45.7556 410.328 45.9476 414.888C46.2356 421.128 52.0916 424.104 57.6116 422.616C59.3876 422.136 59.2436 419.64 56.7476 419.64C53.1956 419.64 50.2676 418.44 49.4516 415.272C56.8916 416.76 62.2196 414.696 60.3956 409.8ZM49.4996 411.96C50.6996 408.408 56.3156 407.496 57.3716 410.712C57.9956 412.536 53.5316 413.016 49.4996 411.96ZM65.4447 406.008C63.5247 406.344 63.5247 409.128 65.8287 408.984C71.9727 408.696 74.7567 409.704 74.7567 412.872C69.5247 411.336 63.6207 412.728 63.6207 417.288C63.6207 425.352 77.6847 424.44 77.6847 417.288V413.064C77.6847 405.672 71.5887 404.904 65.4447 406.008ZM67.4127 417.048C67.4127 414.984 70.2447 414.648 74.7567 415.608V416.136C74.7567 421.512 67.4127 420.696 67.4127 417.048ZM95.3256 402.024C95.3256 399.672 94.4616 399.048 93.7896 399.048C92.3976 399.048 92.1096 399.432 92.0616 401.736V406.248C91.1496 405.864 89.9496 405.624 88.8456 405.624C84.8136 405.624 80.5416 407.64 80.5416 415.08C80.5416 419.544 82.6536 423 88.2216 423C94.4616 423 95.3736 421.368 95.3736 414.696C95.3736 409.128 95.3256 407.064 95.3256 402.024ZM87.8856 419.88C85.0536 419.88 83.9016 418.008 83.9016 415.08C83.9016 409.896 86.3016 408.936 88.7496 408.936C90.1416 408.984 91.3416 409.176 92.0616 409.512C92.1096 412.632 92.1096 415.56 92.1096 415.992C92.1096 419.88 91.1016 419.88 87.8856 419.88ZM114.098 409.08C115.634 408.696 115.73 406.2 114.098 406.2C113.57 406.2 112.37 406.152 111.074 406.056C111.074 404.472 111.122 402.792 111.17 400.968C111.17 398.664 108.338 398.424 108.194 400.2C108.002 402.264 107.81 404.184 107.714 405.96C106.466 405.96 105.41 405.96 104.834 406.104C103.682 406.392 103.97 408.792 104.834 408.84C105.698 408.936 106.61 408.984 107.522 409.032C107.282 417.48 108.482 422.184 112.226 423C113.138 423.24 113.954 423.144 114.338 422.664C114.914 421.848 114.578 420.264 113.618 420.024C111.362 419.448 110.978 415.512 111.026 409.128C112.61 409.176 113.81 409.128 114.098 409.08ZM132.458 423C133.562 423 133.994 421.944 133.994 420.024C133.994 407.88 129.338 405.576 126.314 405.672C123.482 405.672 121.994 406.968 121.322 407.832C120.938 403.08 121.13 403.752 120.746 400.008C120.65 399.288 119.738 398.952 119.066 399C118.394 399.096 117.626 399.768 117.626 400.68C117.77 405.096 117.914 414.072 118.01 419.112C118.058 421.752 118.298 423.384 120.266 422.904C121.802 422.616 121.658 417.576 121.658 413.688C121.658 411.24 123.482 409.416 125.162 409.08C128.042 408.696 129.626 409.848 130.394 420.072C130.538 421.704 130.394 423 132.458 423ZM151.481 409.8C150.473 407.112 147.689 405.624 145.241 405.624C139.673 405.624 136.841 410.328 137.033 414.888C137.321 421.128 143.177 424.104 148.697 422.616C150.473 422.136 150.329 419.64 147.833 419.64C144.281 419.64 141.353 418.44 140.537 415.272C147.977 416.76 153.305 414.696 151.481 409.8ZM140.585 411.96C141.785 408.408 147.401 407.496 148.457 410.712C149.081 412.536 144.617 413.016 140.585 411.96ZM161.663 421.848C171.983 425.976 176.927 418.728 167.423 413.256C162.239 410.28 165.983 407.688 170.783 409.08C171.599 409.224 172.223 409.176 172.463 408.6C172.751 407.928 172.607 406.92 171.839 406.584C163.295 403.032 156.623 410.712 166.079 415.8C170.543 418.2 169.631 421.704 162.575 418.968C160.943 418.344 160.271 421.224 161.663 421.848ZM185.073 409.08C186.609 408.696 186.705 406.2 185.073 406.2C184.545 406.2 183.345 406.152 182.049 406.056C182.049 404.472 182.097 402.792 182.145 400.968C182.145 398.664 179.313 398.424 179.169 400.2C178.977 402.264 178.785 404.184 178.689 405.96C177.441 405.96 176.385 405.96 175.809 406.104C174.657 406.392 174.945 408.792 175.809 408.84C176.673 408.936 177.585 408.984 178.497 409.032C178.257 417.48 179.457 422.184 183.201 423C184.113 423.24 184.929 423.144 185.313 422.664C185.889 421.848 185.553 420.264 184.593 420.024C182.337 419.448 181.953 415.512 182.001 409.128C183.585 409.176 184.785 409.128 185.073 409.08ZM195.033 422.76C206.553 422.76 203.577 405.432 195.369 405.672C185.289 406.008 184.281 422.76 195.033 422.76ZM195.081 419.64C189.129 419.64 188.553 409.032 195.369 409.032C199.881 409.032 201.705 419.64 195.081 419.64ZM206.939 422.904C208.427 422.616 208.331 420.408 208.331 416.52C208.331 411.288 210.107 409.464 211.787 409.128C212.747 408.984 213.611 409.08 214.331 409.464C215.675 410.232 218.027 407.784 215.435 406.152C214.667 405.72 213.755 405.72 212.987 405.72C210.107 405.72 208.331 407.016 207.707 407.88C207.659 406.872 207.707 406.488 207.659 405.624C207.515 404.184 204.539 404.04 204.539 405.96C204.539 408.744 204.587 415.464 204.683 419.112C204.731 421.752 204.923 423.384 206.939 422.904ZM230.452 430.488C234.34 429.624 235.348 423.672 235.156 416.808L234.964 409.704C234.868 407.016 234.724 405.384 232.708 405.816C231.22 406.2 231.316 408.408 231.364 414.984C231.412 418.344 229.06 419.544 226.66 419.544C223.06 419.544 222.244 414.456 222.628 408.696C222.628 407.112 222.628 405.816 220.516 405.816C219.412 405.816 219.22 406.824 218.98 408.792C217.828 417.384 220.996 423 226.708 423C229.156 423 230.836 421.992 231.652 421.224C231.46 424.968 230.884 427.032 229.06 427.512C228.1 427.752 227.764 429.288 228.34 430.152C228.724 430.584 229.54 430.632 230.452 430.488ZM246.164 406.008C244.244 406.344 244.244 409.128 246.548 408.984C252.692 408.696 255.476 409.704 255.476 412.872C250.244 411.336 244.34 412.728 244.34 417.288C244.34 425.352 258.404 424.44 258.404 417.288V413.064C258.404 405.672 252.308 404.904 246.164 406.008ZM248.132 417.048C248.132 414.984 250.964 414.648 255.476 415.608V416.136C255.476 421.512 248.132 420.696 248.132 417.048ZM276.141 411.624C276.141 405 267.501 403.608 263.421 408.84C259.005 414.504 260.733 423 269.037 423C270.237 423 271.437 422.904 272.733 422.616C272.541 423.912 272.301 425.064 271.869 425.736C270.765 427.416 269.181 427.272 266.589 427.272C265.677 427.272 265.293 427.896 265.293 428.856C265.293 429.576 265.917 430.104 266.301 430.152C267.837 430.392 273.021 430.632 274.845 427.512C276.717 424.104 276.189 415.56 276.141 411.624ZM268.845 419.88C263.949 419.88 263.997 413.88 265.917 411.336C268.941 407.352 272.781 408.696 272.925 413.112C272.973 414.312 273.069 416.856 272.973 419.4C271.965 419.688 270.525 419.88 268.845 419.88ZM281.042 406.008C279.122 406.344 279.122 409.128 281.426 408.984C287.57 408.696 290.354 409.704 290.354 412.872C285.122 411.336 279.218 412.728 279.218 417.288C279.218 425.352 293.282 424.44 293.282 417.288V413.064C293.282 405.672 287.186 404.904 281.042 406.008ZM283.01 417.048C283.01 414.984 285.842 414.648 290.354 415.608V416.136C290.354 421.512 283.01 420.696 283.01 417.048ZM296.234 402.072C295.898 404.712 300.218 405.096 300.65 402.456C300.794 401.352 299.834 400.296 298.682 400.296C297.626 400.296 296.474 400.824 296.234 402.072ZM298.874 423.096C299.546 423.144 300.458 422.328 300.458 420.696C300.506 414.984 300.506 412.488 299.93 407.544C299.738 405.96 296.954 406.488 296.954 408.072C296.906 412.824 297.194 415.608 297.002 421.56C297.002 422.472 298.202 423.096 298.874 423.096ZM318.187 423C319.291 423 319.723 421.944 319.723 420.024C319.723 407.88 315.067 405.576 312.043 405.672C309.163 405.672 307.387 406.968 306.763 407.832C306.715 406.824 306.763 406.44 306.715 405.576C306.571 404.136 303.595 403.992 303.595 405.912C303.595 408.696 303.643 415.464 303.739 419.112C303.787 421.752 303.979 423.384 305.995 422.904C307.483 422.616 307.387 420.408 307.387 416.52C307.387 411.24 309.163 409.416 310.843 409.08C313.771 408.696 315.307 409.848 316.075 420.072C316.219 421.704 316.075 423 318.187 423ZM330.734 406.008C328.814 406.344 328.814 409.128 331.118 408.984C337.262 408.696 340.046 409.704 340.046 412.872C334.814 411.336 328.91 412.728 328.91 417.288C328.91 425.352 342.974 424.44 342.974 417.288V413.064C342.974 405.672 336.878 404.904 330.734 406.008ZM332.702 417.048C332.702 414.984 335.534 414.648 340.046 415.608V416.136C340.046 421.512 332.702 420.696 332.702 417.048ZM360.519 423C361.623 423 362.055 421.944 362.055 420.024C362.055 407.88 357.399 405.576 354.375 405.672C351.495 405.672 349.719 406.968 349.095 407.832C349.047 406.824 349.095 406.44 349.047 405.576C348.903 404.136 345.927 403.992 345.927 405.912C345.927 408.696 345.975 415.464 346.071 419.112C346.119 421.752 346.311 423.384 348.327 422.904C349.815 422.616 349.719 420.408 349.719 416.52C349.719 411.24 351.495 409.416 353.175 409.08C356.103 408.696 357.639 409.848 358.407 420.072C358.551 421.704 358.407 423 360.519 423ZM379.741 402.024C379.741 399.672 378.877 399.048 378.205 399.048C376.813 399.048 376.525 399.432 376.477 401.736V406.248C375.565 405.864 374.365 405.624 373.261 405.624C369.229 405.624 364.957 407.64 364.957 415.08C364.957 419.544 367.069 423 372.637 423C378.877 423 379.789 421.368 379.789 414.696C379.789 409.128 379.741 407.064 379.741 402.024ZM372.301 419.88C369.469 419.88 368.317 418.008 368.317 415.08C368.317 409.896 370.717 408.936 373.165 408.936C374.557 408.984 375.757 409.176 376.477 409.512C376.525 412.632 376.525 415.56 376.525 415.992C376.525 419.88 375.517 419.88 372.301 419.88ZM398.514 409.08C400.05 408.696 400.146 406.2 398.514 406.2C397.986 406.2 396.786 406.152 395.49 406.056C395.49 404.472 395.538 402.792 395.586 400.968C395.586 398.664 392.754 398.424 392.61 400.2C392.418 402.264 392.226 404.184 392.13 405.96C390.882 405.96 389.826 405.96 389.25 406.104C388.098 406.392 388.386 408.792 389.25 408.84C390.114 408.936 391.026 408.984 391.938 409.032C391.698 417.48 392.898 422.184 396.642 423C397.554 423.24 398.37 423.144 398.754 422.664C399.33 421.848 398.994 420.264 398.034 420.024C395.778 419.448 395.394 415.512 395.442 409.128C397.026 409.176 398.226 409.128 398.514 409.08ZM416.873 423C417.977 423 418.409 421.944 418.409 420.024C418.409 407.88 413.753 405.576 410.729 405.672C407.897 405.672 406.409 406.968 405.737 407.832C405.353 403.08 405.545 403.752 405.161 400.008C405.065 399.288 404.153 398.952 403.481 399C402.809 399.096 402.041 399.768 402.041 400.68C402.185 405.096 402.329 414.072 402.425 419.112C402.473 421.752 402.713 423.384 404.681 422.904C406.217 422.616 406.073 417.576 406.073 413.688C406.073 411.24 407.897 409.416 409.577 409.08C412.457 408.696 414.041 409.848 414.809 420.072C414.953 421.704 414.809 423 416.873 423ZM435.897 409.8C434.889 407.112 432.105 405.624 429.657 405.624C424.089 405.624 421.257 410.328 421.449 414.888C421.737 421.128 427.593 424.104 433.113 422.616C434.889 422.136 434.745 419.64 432.249 419.64C428.697 419.64 425.769 418.44 424.953 415.272C432.393 416.76 437.721 414.696 435.897 409.8ZM425.001 411.96C426.201 408.408 431.817 407.496 432.873 410.712C433.497 412.536 429.033 413.016 425.001 411.96ZM453.714 423C454.818 423 455.25 421.944 455.25 420.024C455.25 407.88 450.594 405.576 447.57 405.672C444.69 405.672 442.914 406.968 442.29 407.832C442.242 406.824 442.29 406.44 442.242 405.576C442.098 404.136 439.122 403.992 439.122 405.912C439.122 408.696 439.17 415.464 439.266 419.112C439.314 421.752 439.506 423.384 441.522 422.904C443.01 422.616 442.914 420.408 442.914 416.52C442.914 411.24 444.69 409.416 446.37 409.08C449.298 408.696 450.834 409.848 451.602 420.072C451.746 421.704 451.602 423 453.714 423ZM473.989 409.08C475.525 408.696 475.621 406.2 473.989 406.2C473.461 406.2 472.261 406.152 470.965 406.056C470.965 404.472 471.013 402.792 471.061 400.968C471.061 398.664 468.229 398.424 468.085 400.2C467.893 402.264 467.701 404.184 467.605 405.96C466.357 405.96 465.301 405.96 464.725 406.104C463.573 406.392 463.861 408.792 464.725 408.84C465.589 408.936 466.501 408.984 467.413 409.032C467.173 417.48 468.373 422.184 472.117 423C473.029 423.24 473.845 423.144 474.229 422.664C474.805 421.848 474.469 420.264 473.509 420.024C471.253 419.448 470.869 415.512 470.917 409.128C472.501 409.176 473.701 409.128 473.989 409.08ZM479.916 422.904C481.404 422.616 481.308 420.408 481.308 416.52C481.308 411.288 483.084 409.464 484.764 409.128C485.724 408.984 486.588 409.08 487.308 409.464C488.652 410.232 491.004 407.784 488.412 406.152C487.644 405.72 486.732 405.72 485.964 405.72C483.084 405.72 481.308 407.016 480.684 407.88C480.636 406.872 480.684 406.488 480.636 405.624C480.492 404.184 477.516 404.04 477.516 405.96C477.516 408.744 477.564 415.464 477.66 419.112C477.708 421.752 477.9 423.384 479.916 422.904ZM503.429 430.488C507.317 429.624 508.325 423.672 508.133 416.808L507.941 409.704C507.845 407.016 507.701 405.384 505.685 405.816C504.197 406.2 504.293 408.408 504.341 414.984C504.389 418.344 502.037 419.544 499.637 419.544C496.037 419.544 495.221 414.456 495.605 408.696C495.605 407.112 495.605 405.816 493.493 405.816C492.389 405.816 492.197 406.824 491.957 408.792C490.805 417.384 493.973 423 499.685 423C502.133 423 503.813 421.992 504.629 421.224C504.437 424.968 503.861 427.032 502.037 427.512C501.077 427.752 500.741 429.288 501.317 430.152C501.701 430.584 502.517 430.632 503.429 430.488ZM526.869 409.08C528.405 408.696 528.501 406.2 526.869 406.2C526.341 406.2 525.141 406.152 523.845 406.056C523.845 404.472 523.893 402.792 523.941 400.968C523.941 398.664 521.109 398.424 520.965 400.2C520.773 402.264 520.581 404.184 520.485 405.96C519.237 405.96 518.181 405.96 517.605 406.104C516.453 406.392 516.741 408.792 517.605 408.84C518.469 408.936 519.381 408.984 520.293 409.032C520.053 417.48 521.253 422.184 524.997 423C525.909 423.24 526.725 423.144 527.109 422.664C527.685 421.848 527.349 420.264 526.389 420.024C524.133 419.448 523.749 415.512 523.797 409.128C525.381 409.176 526.581 409.128 526.869 409.08ZM536.828 422.76C548.348 422.76 545.372 405.432 537.164 405.672C527.084 406.008 526.076 422.76 536.828 422.76ZM536.876 419.64C530.924 419.64 530.348 409.032 537.164 409.032C541.676 409.032 543.5 419.64 536.876 419.64ZM567.212 402.024C567.212 399.672 566.348 399.048 565.676 399.048C564.284 399.048 563.996 399.432 563.948 401.736V406.248C563.036 405.864 561.836 405.624 560.732 405.624C556.7 405.624 552.428 407.64 552.428 415.08C552.428 419.544 554.54 423 560.108 423C566.348 423 567.26 421.368 567.26 414.696C567.26 409.128 567.212 407.064 567.212 402.024ZM559.772 419.88C556.94 419.88 555.788 418.008 555.788 415.08C555.788 409.896 558.188 408.936 560.636 408.936C562.028 408.984 563.228 409.176 563.948 409.512C563.996 412.632 563.996 415.56 563.996 415.992C563.996 419.88 562.988 419.88 559.772 419.88ZM576.676 422.76C588.196 422.76 585.22 405.432 577.012 405.672C566.932 406.008 565.924 422.76 576.676 422.76ZM576.724 419.64C570.772 419.64 570.196 409.032 577.012 409.032C581.524 409.032 583.348 419.64 576.724 419.64ZM601.923 409.08C603.459 408.696 603.555 406.2 601.923 406.2C601.395 406.2 600.195 406.152 598.899 406.056C598.899 404.472 598.947 402.792 598.995 400.968C598.995 398.664 596.163 398.424 596.019 400.2C595.827 402.264 595.635 404.184 595.539 405.96C594.291 405.96 593.235 405.96 592.659 406.104C591.507 406.392 591.795 408.792 592.659 408.84C593.523 408.936 594.435 408.984 595.347 409.032C595.107 417.48 596.307 422.184 600.051 423C600.963 423.24 601.779 423.144 602.163 422.664C602.739 421.848 602.403 420.264 601.443 420.024C599.187 419.448 598.803 415.512 598.851 409.128C600.435 409.176 601.635 409.128 601.923 409.08ZM620.283 423C621.387 423 621.819 421.944 621.819 420.024C621.819 407.88 617.163 405.576 614.139 405.672C611.307 405.672 609.819 406.968 609.147 407.832C608.763 403.08 608.955 403.752 608.571 400.008C608.475 399.288 607.563 398.952 606.891 399C606.219 399.096 605.451 399.768 605.451 400.68C605.595 405.096 605.739 414.072 605.835 419.112C605.883 421.752 606.123 423.384 608.091 422.904C609.627 422.616 609.483 417.576 609.483 413.688C609.483 411.24 611.307 409.416 612.987 409.08C615.867 408.696 617.451 409.848 618.219 420.072C618.363 421.704 618.219 423 620.283 423ZM639.306 409.8C638.298 407.112 635.514 405.624 633.066 405.624C627.498 405.624 624.666 410.328 624.858 414.888C625.146 421.128 631.002 424.104 636.522 422.616C638.298 422.136 638.154 419.64 635.658 419.64C632.106 419.64 629.178 418.44 628.362 415.272C635.802 416.76 641.13 414.696 639.306 409.8ZM628.41 411.96C629.61 408.408 635.226 407.496 636.282 410.712C636.906 412.536 632.442 413.016 628.41 411.96ZM661.344 431.688C662.88 432.024 663.504 431.304 663.504 427.56V416.712C663.504 409.704 663.12 407.112 660.576 406.296C654.48 404.28 647.616 406.968 648.912 416.904C649.68 422.904 656.064 423.624 660.192 422.328V423.672C660.288 430.392 660.192 431.448 661.344 431.688ZM660.192 418.824C657.408 420.552 652.464 420.168 652.08 416.04C651.456 408.936 655.968 407.736 659.28 409.464C660.288 409.992 660.384 411.24 660.288 415.416L660.192 418.824ZM674.264 423C677.144 423 678.872 421.704 679.544 420.792C679.592 421.848 679.544 421.176 679.592 421.992C679.736 423.48 682.712 423.624 682.712 421.704C682.712 418.872 682.664 413.304 682.568 409.704C682.52 407.016 682.328 405.384 680.312 405.816C678.824 406.2 678.92 408.408 678.92 414.984C678.92 418.344 676.616 419.544 674.216 419.544C670.328 419.544 669.848 414.456 670.232 408.696C670.328 407.112 670.232 405.816 668.12 405.816C667.016 405.816 666.824 406.824 666.584 408.792C665.432 417.384 668.552 423 674.264 423ZM685.707 402.072C685.371 404.712 689.691 405.096 690.123 402.456C690.267 401.352 689.307 400.296 688.155 400.296C687.099 400.296 685.947 400.824 685.707 402.072ZM688.347 423.096C689.019 423.144 689.931 422.328 689.931 420.696C689.979 414.984 689.979 412.488 689.403 407.544C689.211 405.96 686.427 406.488 686.427 408.072C686.379 412.824 686.667 415.608 686.475 421.56C686.475 422.472 687.675 423.096 688.347 423.096ZM704.204 422.904C706.364 422.904 706.796 422.52 706.796 421.464C706.796 420.408 706.316 419.64 704.156 419.64C696.428 419.544 697.052 419.928 697.676 419.256L704.636 411.336C706.7 408.936 708.284 406.056 705.164 405.912L696.092 405.672C693.98 405.624 693.26 406.152 693.212 407.16C693.116 408.216 693.836 408.792 695.996 408.84L702.476 409.032C702.476 409.032 703.34 408.744 695.948 416.76C693.692 419.208 692.492 420.456 693.404 421.752C694.364 423.24 696.572 422.904 704.204 422.904Z" fill="black"/>
<path d="M312.994 94.77C301.33 104.307 299.6 121.505 309.137 133.169C318.674 144.832 335.872 146.563 347.536 137.026L372.474 116.644C384.138 107.107 385.868 89.9091 376.331 78.2455C366.794 66.5819 349.596 64.8516 337.933 74.3885L312.994 94.77Z" fill="#BEE3EE"/>
<path d="M422.021 94.4267C433.751 103.884 435.587 121.069 426.129 132.799C416.672 144.529 399.487 146.365 387.757 136.907L362.686 116.684C350.957 107.226 349.121 90.0413 358.578 78.3117C368.036 66.5821 385.221 64.746 396.951 74.2037L422.021 94.4267Z" fill="#BEE3EE"/>
<path d="M360.797 83.0553L340.415 58.1166C330.878 46.453 313.68 44.7226 302.016 54.2596C290.353 63.7965 288.622 80.9947 298.159 92.6582C303.588 99.2892 309.123 106.105 314.697 112.723C320.047 119.076 325.264 125.813 332.186 130.529C332.556 130.78 332.899 130.661 333.124 130.396C333.428 130.304 333.678 130.066 333.665 129.683C333.626 128.745 333.56 127.807 333.48 126.883C341.445 128.732 350.15 127.015 356.966 121.441C368.616 111.917 370.347 94.7189 360.797 83.0553Z" fill="#94D3E6"/>
<path d="M374.203 83.0553L394.585 58.1166C404.122 46.453 421.32 44.7226 432.984 54.2596C444.647 63.7965 446.378 80.9947 436.841 92.6582C431.412 99.2892 425.877 106.105 420.303 112.723C414.953 119.076 409.736 125.813 402.814 130.529C402.444 130.78 402.101 130.661 401.876 130.396C401.573 130.304 401.322 130.066 401.335 129.683C401.374 128.745 401.44 127.807 401.52 126.883C393.555 128.732 384.85 127.015 378.034 121.441C366.384 111.917 364.653 94.7189 374.203 83.0553Z" fill="#94D3E6"/>
<path d="M371.628 156.023C371.417 157.264 371.192 158.612 370.36 159.668C369.33 160.989 367.428 161.161 366.147 159.959C365.129 159.008 364.76 157.581 364.429 156.353C364.073 154.979 363.848 153.566 363.65 152.166C363.227 149.26 362.99 146.314 362.408 143.421C361.84 140.661 362.58 139.26 363.994 138.098C365.129 137.16 366.503 136.368 367.784 136.368C369.422 136.368 371.945 137.306 372.989 139.67C373.795 141.506 372.949 144.174 372.619 146.116C372.223 148.494 372.223 150.898 371.972 153.288C371.879 154.147 371.8 155.085 371.628 156.023Z" fill="black"/>
<path d="M401.388 2.54663C399.037 0.406765 395.59 -0.306538 392.314 0.116151C388.351 0.618094 384.494 2.45415 381.403 4.95066C374.032 10.8947 370.136 19.9297 369.872 29.2685C369.806 31.4612 373.227 31.448 373.28 29.2553C373.464 22.2413 375.855 15.6104 380.611 10.3796C382.922 7.83023 385.947 5.28089 389.249 4.17133C391.244 3.49767 393.503 3.08819 395.603 3.37878C396.527 3.51087 397.439 3.78826 398.245 4.26379C398.958 4.67327 399.869 5.57148 400.226 6.35082C398.311 7.18299 396.607 8.70202 397.452 11.0136C398.35 13.4573 401.732 13.9856 403.436 12.0835C404.572 10.8155 404.413 8.62277 404.043 7.09052C403.647 5.36014 402.709 3.74865 401.388 2.54663Z" fill="black"/>
<path d="M333.203 2.7727C335.528 0.606414 338.976 -0.120082 342.265 0.276189C346.24 0.751714 350.097 2.56135 353.215 5.04465C360.625 10.9359 364.588 19.9445 364.905 29.2832C364.984 31.4759 361.563 31.4891 361.497 29.2964C361.259 22.2824 358.829 15.6779 354.034 10.4603C351.709 7.92421 348.671 5.40128 345.355 4.30493C343.361 3.64448 341.102 3.24822 338.989 3.55202C338.064 3.68411 337.153 3.9747 336.347 4.45023C335.634 4.87292 334.722 5.77115 334.379 6.55048C335.766 7.13168 336.954 7.8978 337.364 9.45646C338.223 12.7587 333.269 14.5816 331.209 12.3096C330.073 11.0548 330.205 8.86207 330.575 7.31661C330.984 5.59943 331.909 3.98793 333.203 2.7727Z" fill="black"/>
<path d="M412.536 79.9121C412.562 78.7893 412.562 77.6534 412.549 76.5306C412.549 76.2796 412.549 76.0419 412.536 75.7909C412.522 74.5625 412.483 73.334 412.417 72.0924C412.404 71.9206 412.403 71.7357 412.39 71.564C412.324 70.3356 412.245 69.1071 412.153 67.8787C412.153 67.8127 412.139 67.7466 412.139 67.6938C412.034 66.3861 411.888 65.0916 411.743 63.7839C411.73 63.6386 411.703 63.5065 411.69 63.3612C411.532 62.0535 411.36 60.7458 411.149 59.4513C409.299 47.7878 405.046 36.8375 396.156 28.7799C395.654 28.3176 395.139 27.8817 394.611 27.4458C387.055 21.2244 377.479 17.6976 367.665 17.6711C367.625 17.6711 367.585 17.6711 367.559 17.6711C367.519 17.6711 367.48 17.6711 367.44 17.6711C367.427 17.6711 367.414 17.6711 367.4 17.6711C367.387 17.6711 367.374 17.6711 367.361 17.6711C367.321 17.6711 367.281 17.6711 367.242 17.6711C367.202 17.6711 367.163 17.6711 367.136 17.6711C357.309 17.6976 347.745 21.2244 340.19 27.4458C339.661 27.8817 339.146 28.3176 338.644 28.7799C329.755 36.8375 325.501 47.7745 323.652 59.4513C323.441 60.7458 323.269 62.0535 323.11 63.3612C323.097 63.5065 323.071 63.6386 323.058 63.7839C322.899 65.0784 322.767 66.3861 322.661 67.6938C322.661 67.7598 322.648 67.8259 322.648 67.8787C322.542 69.1071 322.463 70.3356 322.41 71.564C322.397 71.7357 322.384 71.9206 322.384 72.0924C322.331 73.3208 322.291 74.5493 322.265 75.7909C322.265 76.0419 322.265 76.2796 322.252 76.5306C322.239 77.6534 322.239 78.7893 322.265 79.9121C322.265 80.0442 322.265 80.1763 322.265 80.3084C322.173 88.5112 322.675 96.78 323.665 104.705C325.013 115.339 327.879 126.461 333.347 135.773C336.993 141.995 342.224 146.869 348.26 150.171C348.353 150.224 348.432 150.277 348.525 150.329C354.469 153.619 360.968 155.151 367.4 155.111C373.833 155.138 380.332 153.619 386.276 150.329C386.369 150.277 386.448 150.224 386.54 150.171C392.577 146.869 397.808 141.995 401.453 135.773C406.922 126.474 409.788 115.352 411.135 104.705C412.139 96.78 412.628 88.5112 412.536 80.3084C412.536 80.1763 412.536 80.0442 412.536 79.9121Z" fill="#FFD217"/>
<path d="M382.736 60.1769C392.242 60.1769 399.948 52.4711 399.948 42.9655C399.948 33.4599 392.242 25.7542 382.736 25.7542C373.231 25.7542 365.525 33.4599 365.525 42.9655C365.525 52.4711 373.231 60.1769 382.736 60.1769Z" fill="white"/>
<path d="M380.636 52.8451C383.941 52.8451 386.62 50.1661 386.62 46.8614C386.62 43.5567 383.941 40.8777 380.636 40.8777C377.331 40.8777 374.652 43.5567 374.652 46.8614C374.652 50.1661 377.331 52.8451 380.636 52.8451Z" fill="black"/>
<path d="M352.039 60.1768C361.545 60.1768 369.25 52.471 369.25 42.9654C369.25 33.4598 361.545 25.754 352.039 25.754C342.533 25.754 334.828 33.4598 334.828 42.9654C334.828 52.471 342.533 60.1768 352.039 60.1768Z" fill="white"/>
<path d="M354.112 53.0713C357.417 53.0713 360.096 50.3923 360.096 47.0876C360.096 43.7829 357.417 41.1039 354.112 41.1039C350.807 41.1039 348.128 43.7829 348.128 47.0876C348.128 50.3923 350.807 53.0713 354.112 53.0713Z" fill="black"/>
<mask id="mask0_0_1" style="mask-type:alpha" maskUnits="userSpaceOnUse" x="322" y="17" width="91" height="138">
<path d="M412.673 79.4127C412.7 78.29 412.7 77.154 412.686 76.0312C412.686 75.7802 412.687 75.5425 412.673 75.2915C412.66 74.0631 412.62 72.8346 412.554 71.593C412.541 71.4212 412.541 71.2363 412.528 71.0646C412.462 69.8362 412.383 68.6078 412.29 67.3793C412.29 67.3133 412.277 67.2472 412.277 67.1944C412.171 65.8867 412.026 64.5922 411.881 63.2845C411.868 63.1392 411.841 63.0071 411.828 62.8618C411.669 61.5541 411.498 60.2464 411.286 58.9519C409.437 47.2884 405.184 36.3381 396.294 28.2806C395.792 27.8182 395.277 27.3823 394.749 26.9464C387.193 20.725 377.617 17.1982 367.802 17.1718C367.763 17.1718 367.723 17.1718 367.697 17.1718C367.657 17.1718 367.617 17.1718 367.578 17.1718C367.564 17.1718 367.551 17.1718 367.538 17.1718C367.525 17.1718 367.512 17.1718 367.498 17.1718C367.459 17.1718 367.419 17.1718 367.379 17.1718C367.34 17.1718 367.3 17.1718 367.274 17.1718C357.446 17.1982 347.883 20.725 340.327 26.9464C339.799 27.3823 339.284 27.8182 338.782 28.2806C329.892 36.3381 325.639 47.2752 323.79 58.9519C323.578 60.2464 323.407 61.5541 323.248 62.8618C323.235 63.0071 323.209 63.1392 323.195 63.2845C323.037 64.579 322.905 65.8867 322.799 67.1944C322.799 67.2604 322.786 67.3265 322.786 67.3793C322.68 68.6078 322.601 69.8362 322.548 71.0646C322.535 71.2363 322.522 71.4212 322.522 71.593C322.469 72.8214 322.429 74.0499 322.403 75.2915C322.403 75.5425 322.403 75.7802 322.39 76.0312C322.376 77.154 322.376 78.29 322.403 79.4127C322.403 79.5448 322.403 79.6769 322.403 79.809C322.31 88.0118 322.812 96.2807 323.803 104.206C325.15 114.839 328.017 125.961 333.485 135.274C337.131 141.495 342.362 146.369 348.398 149.672C348.491 149.724 348.57 149.777 348.662 149.83C354.606 153.119 361.105 154.651 367.538 154.612C373.971 154.638 380.47 153.119 386.414 149.83C386.506 149.777 386.585 149.724 386.678 149.672C392.714 146.369 397.945 141.495 401.591 135.274C407.059 125.975 409.926 114.853 411.273 104.206C412.277 96.2807 412.766 88.0118 412.673 79.809C412.673 79.6769 412.673 79.5448 412.673 79.4127Z" fill="#FFD217"/>
</mask>
<g mask="url(#mask0_0_1)">
<path d="M419.841 99.104C385.867 109.737 349.476 109.883 315.423 99.5135L315.238 99.4607L315.159 76.6883L315.252 76.7147C349.305 87.1102 385.695 86.9914 419.669 76.3713L419.762 76.3448L419.841 99.104Z" fill="black"/>
<path d="M419.961 135.889L419.868 135.916C385.895 146.536 349.504 146.655 315.451 136.259L315.359 136.233L315.279 113.46L315.372 113.487C349.425 123.882 385.816 123.764 419.789 113.143L419.882 113.117L419.961 135.889Z" fill="black"/>
</g>
<path d="M341.643 64.2324C341.736 63.5192 341.947 62.8058 342.145 62.185C342.568 60.8773 343.136 59.6225 343.81 58.4337C344.153 57.826 344.523 57.2317 344.906 56.6505C345.223 56.1749 345.553 55.5541 346.069 55.2371C346.544 54.9465 347.086 55.2503 347.363 55.673C347.588 56.0164 347.68 56.4259 347.772 56.8354C347.997 57.8789 348.222 58.9356 348.446 59.9791C348.895 62.0794 349.78 65.1703 348.142 66.9931C346.993 68.2744 344.8 68.4725 343.334 67.6932C342.555 67.2837 341.881 66.5176 341.696 65.6458C341.577 65.1967 341.577 64.7212 341.643 64.2324Z" fill="#88CDEB"/>
<path d="M354.06 74.6415C357.825 72.0658 362.25 70.7184 366.807 70.7449C371.378 70.7713 375.525 72.5281 379.488 74.6283C381.364 75.619 383.041 72.7658 381.152 71.7752C376.661 69.4107 371.945 67.4822 366.794 67.4426C361.695 67.4162 356.583 68.9088 352.37 71.7884C350.639 72.9772 352.29 75.8436 354.06 74.6415Z" fill="black"/>
</svg>
