<svg width="152" height="184" viewBox="0 0 152 184" fill="none" xmlns="http://www.w3.org/2000/svg">
<g clip-path="url(#clip0_2_1033)">
<path d="M110.11 25.3491C107.743 23.2035 104.273 22.4883 100.976 22.9121C96.9879 23.4154 93.1058 25.2563 89.9948 27.7595C82.5763 33.7193 78.6543 42.7783 78.3884 52.1418C78.3219 54.3403 81.7653 54.3271 81.8185 52.1286C82.0046 45.096 84.411 38.4475 89.1971 33.2028C91.5237 30.6467 94.5682 28.0906 97.8919 26.9781C99.8995 26.3026 102.173 25.8921 104.287 26.1834C105.217 26.3159 106.135 26.594 106.946 27.0708C107.664 27.4814 108.581 28.382 108.94 29.1634C107.012 29.9977 105.297 31.5208 106.148 33.8385C107.052 36.2887 110.456 36.8184 112.171 34.9113C113.314 33.6399 113.154 31.4413 112.782 29.905C112.37 28.17 111.426 26.5543 110.11 25.3491Z" fill="black"/>
<path d="M41.481 25.5763C43.8209 23.4042 47.2908 22.6758 50.6012 23.0731C54.603 23.5499 58.4851 25.3644 61.6227 27.8542C69.0811 33.7611 73.0695 42.7936 73.3886 52.1571C73.4684 54.3556 70.025 54.3689 69.9585 52.1704C69.7192 45.1378 67.273 38.5157 62.4469 33.2843C60.1071 30.7414 57.0492 28.2118 53.7122 27.1126C51.7047 26.4504 49.4313 26.053 47.3041 26.3577C46.3735 26.4901 45.4561 26.7815 44.6452 27.2583C43.9272 27.6821 43.0099 28.5827 42.6642 29.3641C44.0602 29.9468 45.2567 30.715 45.6689 32.2778C46.533 35.5888 41.5475 37.4165 39.4735 35.1385C38.3301 33.8803 38.463 31.6818 38.8353 30.1322C39.2341 28.4105 40.1648 26.7947 41.481 25.5763Z" fill="black"/>
<path d="M73.8938 43.9568C86.4973 29.4943 100.656 16.0251 116.171 3.76105C115.055 22.7001 113.911 44.3409 111.505 63.1475" fill="#EF781D"/>
<path d="M21.1269 117.819C9.38751 127.381 7.64589 144.625 17.2448 156.32C26.8436 168.014 44.1535 169.749 55.8929 160.187L80.9936 139.751C92.7329 130.189 94.4745 112.945 84.8757 101.251C75.2768 89.5562 57.9669 87.8212 46.2275 97.3834L21.1269 117.819Z" fill="#BEE3EE"/>
<path d="M130.876 117.475C142.682 126.957 144.53 144.188 135.011 155.949C125.491 167.709 108.195 169.55 96.389 160.068L71.1554 139.791C59.3496 130.308 57.5016 113.078 67.0207 101.317C76.5398 89.5561 93.8364 87.7152 105.642 97.1979L130.876 117.475Z" fill="#BEE3EE"/>
<path d="M69.2533 106.072L48.7393 81.0667C39.1405 69.3722 21.8306 67.6372 10.0912 77.1994C-1.64813 86.7617 -3.38976 104.005 6.20912 115.7C11.6733 122.349 17.2438 129.182 22.8543 135.818C28.2387 142.188 33.4902 148.943 40.4566 153.671C40.8289 153.922 41.1746 153.803 41.4006 153.538C41.7064 153.446 41.959 153.207 41.9457 152.823C41.9058 151.883 41.8393 150.942 41.7595 150.015C49.7763 151.87 58.5376 150.148 65.3978 144.559C77.1238 135.01 78.8655 117.766 69.2533 106.072Z" fill="#94D3E6"/>
<path d="M82.7482 106.072L103.262 81.0667C112.861 69.3722 130.171 67.6372 141.91 77.1994C153.65 86.7617 155.391 104.005 145.792 115.7C140.328 122.349 134.758 129.182 129.147 135.818C123.763 142.188 118.511 148.943 111.545 153.671C111.173 153.922 110.827 153.803 110.601 153.538C110.295 153.446 110.043 153.207 110.056 152.823C110.096 151.883 110.162 150.942 110.242 150.015C102.225 151.87 93.4639 150.148 86.6037 144.559C74.8777 135.01 73.136 117.766 82.7482 106.072Z" fill="#94D3E6"/>
<path d="M80.1548 179.232C79.9421 180.477 79.7161 181.828 78.8785 182.888C77.8415 184.212 75.927 184.384 74.6374 183.179C73.6137 182.225 73.2415 180.795 72.9091 179.563C72.5501 178.186 72.3241 176.769 72.1247 175.365C71.6993 172.451 71.46 169.498 70.875 166.597C70.3033 163.829 71.0478 162.425 72.4704 161.26C73.6137 160.32 74.9964 159.525 76.286 159.525C77.9345 159.525 80.4739 160.465 81.5242 162.836C82.3351 164.677 81.4843 167.352 81.1519 169.299C80.7531 171.683 80.7531 174.093 80.5005 176.491C80.4074 177.338 80.3143 178.292 80.1548 179.232Z" fill="black"/>
<path d="M121.33 102.919C121.356 101.794 121.356 100.655 121.343 99.5289C121.343 99.2773 121.343 99.0389 121.33 98.7873C121.316 97.5556 121.277 96.3239 121.21 95.0789C121.197 94.9068 121.197 94.7213 121.183 94.5492C121.117 93.3175 121.037 92.0858 120.944 90.8541C120.944 90.7879 120.931 90.7216 120.931 90.6687C120.824 89.3575 120.678 88.0596 120.532 86.7484C120.519 86.6027 120.492 86.4703 120.479 86.3246C120.319 85.0134 120.146 83.7155 119.934 82.4044C118.072 70.7098 113.792 59.7305 104.844 51.6516C104.339 51.1881 103.82 50.751 103.289 50.314C95.6839 44.076 86.0452 40.5398 76.1671 40.5133C76.1272 40.5133 76.0873 40.5133 76.0607 40.5133C76.0209 40.5133 75.981 40.5133 75.9411 40.5133C75.9278 40.5133 75.9145 40.5133 75.9012 40.5133C75.8879 40.5133 75.8746 40.5133 75.8613 40.5133C75.8214 40.5133 75.7815 40.5133 75.7417 40.5133C75.7018 40.5133 75.6619 40.5133 75.6353 40.5133C65.7439 40.5398 56.1185 44.076 48.5138 50.314C47.982 50.751 47.4635 51.1881 46.9583 51.6516C38.0109 59.7305 33.7299 70.6966 31.8687 82.4044C31.656 83.7023 31.4831 85.0134 31.3236 86.3246C31.3103 86.4703 31.2837 86.6027 31.2704 86.7484C31.1109 88.0463 30.9779 89.3575 30.8716 90.6687C30.8716 90.7349 30.8583 90.8011 30.8583 90.8541C30.7519 92.0858 30.6721 93.3175 30.619 94.5492C30.6057 94.7213 30.5924 94.9068 30.5924 95.0789C30.5392 96.3106 30.4993 97.5423 30.4727 98.7873C30.4727 99.0389 30.4727 99.2773 30.4594 99.5289C30.4461 100.655 30.4461 101.794 30.4727 102.919C30.4727 103.052 30.4727 103.184 30.4727 103.317C30.3796 111.541 30.8849 119.832 31.882 127.779C33.238 138.44 36.123 149.592 41.6271 158.929C45.2965 165.167 50.5612 170.054 56.637 173.365C56.73 173.418 56.8098 173.471 56.9029 173.524C62.8855 176.821 69.4266 178.358 75.9012 178.318C82.3758 178.344 88.9169 176.821 94.8995 173.524C94.9926 173.471 95.0724 173.418 95.1654 173.365C101.241 170.054 106.506 165.167 110.175 158.929C115.679 149.605 118.564 138.453 119.92 127.779C120.931 119.832 121.423 111.541 121.33 103.317C121.316 103.171 121.33 103.052 121.33 102.919Z" fill="#FFD217"/>
<path d="M91.3381 83.133C100.905 83.133 108.661 75.4068 108.661 65.876C108.661 56.3452 100.905 48.619 91.3381 48.619C81.7707 48.619 74.0149 56.3452 74.0149 65.876C74.0149 75.4068 81.7707 83.133 91.3381 83.133Z" fill="white"/>
<path d="M89.223 75.7825C92.5492 75.7825 95.2456 73.0964 95.2456 69.7829C95.2456 66.4694 92.5492 63.7833 89.223 63.7833C85.8968 63.7833 83.2004 66.4694 83.2004 69.7829C83.2004 73.0964 85.8968 75.7825 89.223 75.7825Z" fill="black"/>
<path d="M60.4401 83.133C70.0075 83.133 77.7633 75.4068 77.7633 65.876C77.7633 56.3452 70.0075 48.619 60.4401 48.619C50.8728 48.619 43.1169 56.3452 43.1169 65.876C43.1169 75.4068 50.8728 83.133 60.4401 83.133Z" fill="white"/>
<path d="M62.514 76.0078C65.8402 76.0078 68.5366 73.3217 68.5366 70.0082C68.5366 66.6948 65.8402 64.0087 62.514 64.0087C59.1878 64.0087 56.4915 66.6948 56.4915 70.0082C56.4915 73.3217 59.1878 76.0078 62.514 76.0078Z" fill="black"/>
<mask id="mask0_2_1033" style="mask-type:alpha" maskUnits="userSpaceOnUse" x="30" y="41" width="92" height="138">
<path d="M121.329 103.462C121.356 102.337 121.356 101.198 121.343 100.072C121.343 99.8202 121.343 99.5818 121.329 99.3302C121.316 98.0985 121.276 96.8668 121.21 95.6219C121.197 95.4497 121.197 95.2643 121.183 95.0921C121.117 93.8604 121.037 92.6287 120.944 91.397C120.944 91.3308 120.931 91.2646 120.931 91.2116C120.824 89.9004 120.678 88.6025 120.532 87.2913C120.518 87.1456 120.492 87.0132 120.479 86.8675C120.319 85.5564 120.146 84.2584 119.933 82.9473C118.072 71.2528 113.791 60.2734 104.844 52.1945C104.339 51.731 103.82 51.2939 103.288 50.8569C95.6837 44.6189 86.0449 41.0827 76.1669 41.0562C76.127 41.0562 76.0871 41.0562 76.0605 41.0562C76.0206 41.0562 75.9807 41.0562 75.9408 41.0562C75.9276 41.0562 75.9143 41.0562 75.901 41.0562C75.8877 41.0562 75.8744 41.0562 75.8611 41.0562C75.8212 41.0562 75.7813 41.0562 75.7414 41.0562C75.7015 41.0562 75.6617 41.0562 75.6351 41.0562C65.7437 41.0827 56.1182 44.6189 48.5136 50.8569C47.9818 51.2939 47.4633 51.731 46.9581 52.1945C38.0106 60.2734 33.7297 71.2395 31.8684 82.9473C31.6557 84.2452 31.4829 85.5564 31.3233 86.8675C31.31 87.0132 31.2835 87.1456 31.2702 87.2913C31.1106 88.5893 30.9777 89.9004 30.8713 91.2116C30.8713 91.2778 30.858 91.344 30.858 91.397C30.7517 92.6287 30.6719 93.8604 30.6187 95.0921C30.6054 95.2643 30.5921 95.4497 30.5921 95.6219C30.5389 96.8536 30.4991 98.0853 30.4725 99.3302C30.4725 99.5818 30.4725 99.8202 30.4592 100.072C30.4459 101.198 30.4459 102.337 30.4725 103.462C30.4725 103.595 30.4725 103.727 30.4725 103.86C30.3794 112.084 30.8846 120.375 31.8817 128.321C33.2378 138.983 36.1228 150.135 41.6268 159.472C45.2962 165.71 50.561 170.597 56.6367 173.908C56.7298 173.961 56.8096 174.014 56.9026 174.067C62.8853 177.364 69.4264 178.901 75.901 178.861C82.3756 178.887 88.9166 177.364 94.8993 174.067C94.9924 174.014 95.0721 173.961 95.1652 173.908C101.241 170.597 106.506 165.71 110.175 159.472C115.679 150.148 118.564 138.996 119.92 128.321C120.931 120.375 121.423 112.084 121.329 103.86C121.316 103.714 121.329 103.595 121.329 103.462Z" fill="#FFD217"/>
</mask>
<g mask="url(#mask0_2_1033)">
<path d="M128.682 122.163C94.4876 132.824 57.8603 132.97 23.5862 122.573L23.4001 122.52L23.3203 99.6876L23.4134 99.7141C57.6875 110.137 94.3148 110.018 128.509 99.3697L128.602 99.3432L128.682 122.163Z" fill="black"/>
<path d="M128.801 159.047L128.708 159.074C94.514 169.722 57.8867 169.841 23.6125 159.418L23.5195 159.392L23.4397 136.559L23.5328 136.585C57.8069 147.008 94.4342 146.889 128.629 136.241L128.722 136.215L128.801 159.047Z" fill="black"/>
</g>
<path d="M127.351 45.9963C126.78 44.9765 125.543 44.5792 124.466 45.1089C122.153 46.2479 123.602 49.3073 123.815 51.1482C124.081 53.413 124.347 55.6777 124.599 57.9425C124.692 58.7636 125.158 59.4655 126.035 59.5715C126.86 59.6642 127.617 59.1874 127.857 58.3795C128.575 55.9558 128.801 53.3732 128.508 50.8569C128.415 49.8371 128.176 47.4399 127.351 45.9963Z" fill="#AEC312"/>
<path d="M90.2059 18.2897C90.1793 18.091 90.1527 17.8924 90.1128 17.6937C89.7938 16.0779 89.0094 14.5946 88.4643 13.0451C87.9192 11.4955 87.6134 9.73403 88.2516 8.22421C88.6105 7.38983 89.2354 6.64816 89.355 5.74756C89.5013 4.64831 88.5972 3.44309 87.4805 3.49607C86.8423 3.52256 86.2839 3.93313 85.8984 4.42316C84.2631 6.5687 84.6221 9.44266 85.3799 11.8663C85.9649 13.7337 86.8157 15.5085 87.4273 17.3626C87.9059 18.7797 88.225 20.3823 87.5735 21.7332C87.3209 22.2762 86.9221 22.7265 86.6163 23.243C86.2573 23.8522 85.8718 25.0177 86.7094 25.4283C87.8793 26.011 89.0626 23.6933 89.4348 22.8987C90.1261 21.4948 90.392 19.8658 90.2059 18.2897Z" fill="#FFD217"/>
<path d="M28.5581 21.4422C28.3454 19.4556 28.5714 17.4425 28.6511 15.4427C28.691 14.2374 28.824 12.7938 28.465 11.6284C28.1326 10.5423 27.3615 10.5159 26.9228 11.5621C25.9523 13.8666 25.2609 16.277 24.8621 18.7404C24.5031 20.9654 23.506 26.1968 27.0558 26.3293C27.6141 26.3558 28.1991 26.2233 28.598 25.826C29.3425 25.0579 28.9968 23.8129 28.7708 22.7799C28.6777 22.3296 28.6112 21.8925 28.5581 21.4422Z" fill="#FFD217"/>
<path d="M22.6679 39.0698C20.6869 37.0964 18.0944 35.8117 16.3528 33.5602C15.9407 33.0305 15.6216 32.3683 15.7014 31.6928C15.7545 31.269 15.954 30.8187 15.7545 30.4346C15.3557 29.6135 14.2389 29.0572 13.3615 28.991C10.7291 28.7924 11.806 32.7259 12.2314 34.1032C12.9493 36.4342 14.2921 38.5532 16.0071 40.275C17.4164 41.6921 19.0915 42.937 19.6765 44.9369C19.7563 45.215 19.8228 45.5064 19.7297 45.7845C19.4771 46.6056 18.4933 46.8308 18.48 47.8241C18.4667 49.9696 22.3488 50.208 23.8112 50.5789C25.832 51.0821 26.4436 49.4266 26.3904 47.6917C26.2973 44.7912 25.154 41.957 23.2661 39.7452C23.1066 39.5068 22.8939 39.2817 22.6679 39.0698Z" fill="#AEC312"/>
<path d="M68.295 14.1709C68.2551 13.8928 68.1886 13.6279 68.1089 13.363C67.2048 10.3566 65.3435 7.73426 63.0302 5.62846C61.8603 4.56893 60.584 3.6286 59.2412 2.82071C58.1909 2.18499 56.4892 0.887074 55.2262 1.31088C53.9764 1.72145 53.2319 3.44318 53.1389 4.63515C53.0059 6.18471 53.5111 7.76075 54.5082 8.95272C56.0504 10.7936 58.51 11.5353 60.81 12.1843C62.299 12.5948 62.7776 12.82 63.2031 14.2901C63.3759 14.8861 63.5886 15.694 64.1736 16.0383C64.6788 16.3297 65.4499 16.131 66.0083 16.184C66.4736 16.237 66.9655 16.2635 67.4042 16.0913C68.162 15.7999 68.4013 14.8861 68.295 14.1709Z" fill="#C99FCA"/>
<path d="M112.023 13.0452C111.943 12.6214 111.797 12.1976 111.638 11.7871C110.481 8.72768 109.338 5.65505 108.181 2.59567C107.902 1.86725 107.609 1.11233 107.038 0.595816C106.453 0.0792964 105.615 -0.132609 104.857 0.0792964C104.099 0.291202 103.488 0.940162 103.342 1.69507C103.235 2.27781 103.368 2.86055 103.514 3.43005C104.259 6.31726 104.871 9.61503 106.28 12.2506C106.891 13.3896 107.809 15.0583 109.019 15.6543C110.295 16.29 111.957 15.0584 112.063 13.7075C112.076 13.4955 112.063 13.2704 112.023 13.0452Z" fill="#AEC312"/>
<path d="M15.7415 73.2264C15.7149 72.988 15.6617 72.7363 15.5819 72.5112C15.0235 70.8557 13.6808 70.3391 12.2848 69.571C10.8489 68.7763 9.51946 67.7433 8.61542 66.3659C7.24605 64.2601 7.03333 61.6245 6.60789 59.1479C6.50153 58.5519 6.35529 57.9162 5.90327 57.5321C5.45124 57.1348 4.58708 57.1878 4.38765 57.7573C4.34777 57.8897 4.33447 58.0221 4.33447 58.1678C4.2547 59.9955 4.09517 61.8232 4.0021 63.6244C3.93563 64.9356 4.05528 67.5711 5.06569 68.5777C5.8102 69.9418 6.99344 70.9351 8.17669 71.9152C9.02756 72.6171 9.98478 73.2793 10.5831 74.2329C11.2079 75.213 10.942 76.6301 12.3646 76.9347C13.0958 77.0936 13.8802 76.8155 14.4519 76.352C15.3825 75.597 15.8478 74.3786 15.7415 73.2264Z" fill="#FFD217"/>
<path d="M147.893 42.8839C147.853 42.4601 147.733 42.0363 147.521 41.6257C146.191 39.1623 142.867 38.818 141.299 36.5665C140.7 35.7189 140.235 34.7785 139.77 33.8514C138.919 32.1562 139.371 30.5934 138.892 28.8319C138.719 28.2227 138.015 26.991 137.297 26.8983C135.954 26.7129 136.486 29.0174 136.499 29.759C136.512 30.898 136.246 32.0105 136.22 33.1495C136.167 34.8977 136.433 36.6592 137.27 38.2087C138.015 39.5729 139.198 40.5662 140.381 41.5463C141.591 42.5396 142.761 43.4402 143.24 45.003C143.373 45.4268 143.466 45.9036 143.785 46.2082C144.862 47.2412 146.204 46.5128 147.002 45.5195C147.614 44.7513 147.959 43.811 147.893 42.8839Z" fill="#FFD217"/>
<path d="M142.361 77.4777C142.108 77.1202 141.855 76.7758 141.576 76.4447C140.486 75.1203 139.263 73.9151 138.279 72.5112C137.109 70.8689 136.298 68.6439 137.255 66.8692C137.508 66.3925 137.893 65.9554 137.973 65.4124C138.119 64.4985 137.295 63.6244 136.378 63.4788C135.301 63.3066 134.224 63.9026 133.426 64.578C132.004 65.77 131.259 67.7433 130.608 69.4253C129.704 71.7695 129.597 74.3389 130.98 76.5242C131.552 77.4248 132.336 78.1267 133.24 78.683C134.118 79.2127 135.062 79.5968 135.766 80.365C136.923 81.6231 137.295 83.4243 136.843 85.0534C136.591 85.9804 137.162 86.7751 138 87.0929C140.18 87.9273 142.6 86.5235 143.57 84.5236C144.754 82.1132 143.796 79.5571 142.361 77.4777Z" fill="#C99FCA"/>
<path d="M40.2974 50.0098C40.2708 49.6654 40.2176 49.3343 40.1112 49.0032C39.7656 47.8642 38.6621 46.7252 37.4124 47.4139C36.628 47.8377 36.5482 48.4205 36.6413 49.2284C36.7476 50.2746 36.8141 51.3077 36.7211 52.3672C36.6014 53.7843 36.2823 55.1882 35.7904 56.5259C35.3118 57.8105 34.554 58.976 34.195 60.3004C33.743 62.0089 33.969 64.075 34.9262 65.5848C35.7771 66.9225 38.4361 68.2866 39.6858 66.6311C40.0182 66.194 40.0581 65.5981 40.0847 65.055C40.2974 60.4329 40.324 55.8239 40.324 51.2017C40.3373 50.7912 40.324 50.3938 40.2974 50.0098Z" fill="#C99FCA"/>
<path d="M110.242 91.0528C109.085 87.0134 103.262 85.0533 99.9779 87.7551C98.3693 89.0662 97.5716 91.3707 98.449 93.3176C99.3265 95.2512 101.6 96.3504 103.647 95.6353C105.176 95.1055 105.269 92.9335 103.647 92.4435C102.73 92.1653 101.347 90.1787 103.089 89.9668C104.259 89.8211 105.894 91.9402 106.08 92.9335C106.692 96.2975 101.613 97.4497 99.2999 97.4629C95.8698 97.4894 92.2138 96.6286 88.9432 95.622C85.6062 94.589 82.8276 92.4302 80.142 90.2847C78.8657 89.2516 77.1507 90.4304 77.2305 91.6356C76.4461 92.1521 76.0206 93.3176 76.8183 94.2446C79.8761 97.7808 84.3831 99.5025 88.9166 100.165C91.4294 100.536 93.982 100.668 96.5213 100.761C98.9675 100.853 101.507 100.88 103.873 100.138C107.583 98.9595 111.465 95.3174 110.242 91.0528Z" fill="#EF781D"/>
<path d="M81.2198 90.4966C81.0071 88.0067 78.5874 87.2783 76.4336 87.3445C73.8943 87.424 70.8631 88.0862 70.7169 91.1588C70.6105 93.3573 72.5383 94.9201 73.8544 96.4432C74.3729 97.0524 74.918 97.6352 75.4764 98.2047C76.1146 98.8536 76.8192 99.5821 77.7498 99.7807C78.9995 100.046 80.2891 99.3304 80.5285 98.0325C80.6747 97.1716 80.4487 96.3108 80.1296 95.5161C79.8105 94.7347 79.3851 94.0195 78.8666 93.3573C79.2787 93.3176 79.6909 93.2117 80.0764 92.96C80.8608 92.417 81.2996 91.4634 81.2198 90.4966ZM77.2579 97.4498C77.2579 97.4365 77.2579 97.4365 77.2579 97.4233C77.2579 97.463 77.2712 97.4895 77.2579 97.516C77.2579 97.4895 77.2579 97.4763 77.2579 97.4498Z" fill="#2C2522"/>
</g>
<defs>
<clipPath id="clip0_2_1033">
<rect width="152" height="184" fill="white"/>
</clipPath>
</defs>
</svg>
