<svg width="151" height="161" viewBox="0 0 151 161" fill="none" xmlns="http://www.w3.org/2000/svg">
<path d="M20.9939 94.77C9.33035 104.307 7.59995 121.505 17.1369 133.169C26.6738 144.832 43.872 146.563 55.5355 137.026L80.4742 116.644C92.1378 107.107 93.8682 89.9091 84.3312 78.2455C74.7943 66.5819 57.5961 64.8516 45.9326 74.3885L20.9939 94.77Z" fill="#BEE3EE"/>
<path d="M130.021 94.4268C141.751 103.884 143.587 121.069 134.129 132.799C124.672 144.529 107.487 146.365 95.7571 136.907L70.6863 116.684C58.9567 107.226 57.1207 90.0414 66.5783 78.3118C76.036 66.5821 93.221 64.7461 104.951 74.2037L130.021 94.4268Z" fill="#BEE3EE"/>
<path d="M68.7966 83.0553L48.415 58.1166C38.8781 46.453 21.68 44.7226 10.0164 54.2596C-1.64719 63.7965 -3.37759 80.9947 6.15934 92.6582C11.5883 99.2892 17.1229 106.105 22.6971 112.723C28.0467 119.076 33.2643 125.813 40.1858 130.529C40.5557 130.78 40.8991 130.661 41.1237 130.396C41.4275 130.304 41.6784 130.066 41.6652 129.683C41.6256 128.745 41.5595 127.807 41.4803 126.883C49.4453 128.732 58.1501 127.015 64.966 121.441C76.6164 111.917 78.3467 94.7189 68.7966 83.0553Z" fill="#94D3E6"/>
<path d="M82.2035 83.0553L102.585 58.1166C112.122 46.453 129.32 44.7226 140.984 54.2596C152.647 63.7965 154.378 80.9947 144.841 92.6582C139.412 99.2892 133.877 106.105 128.303 112.723C122.953 119.076 117.736 125.813 110.814 130.529C110.444 130.78 110.101 130.661 109.876 130.396C109.573 130.304 109.322 130.066 109.335 129.683C109.374 128.745 109.44 127.807 109.52 126.883C101.555 128.732 92.85 127.015 86.0341 121.441C74.3837 111.917 72.6533 94.7189 82.2035 83.0553Z" fill="#94D3E6"/>
<path d="M79.6283 156.023C79.4169 157.264 79.1924 158.612 78.3603 159.668C77.33 160.989 75.4279 161.161 74.1466 159.959C73.1295 159.008 72.7596 157.581 72.4293 156.353C72.0727 154.979 71.8482 153.566 71.6501 152.166C71.2274 149.26 70.9896 146.314 70.4084 143.421C69.8404 140.661 70.5801 139.26 71.9935 138.098C73.1295 137.16 74.5032 136.368 75.7845 136.368C77.4224 136.368 79.9453 137.305 80.9889 139.67C81.7946 141.506 80.9492 144.174 80.619 146.116C80.2227 148.494 80.2227 150.898 79.9717 153.288C79.8793 154.147 79.8 155.085 79.6283 156.023Z" fill="black"/>
<path d="M109.388 2.54663C107.037 0.406765 103.59 -0.306538 100.314 0.116151C96.3511 0.618094 92.494 2.45415 89.4031 4.95066C82.0325 10.8947 78.1357 19.9297 77.8715 29.2685C77.8055 31.4612 81.2267 31.448 81.2795 29.2553C81.4644 22.2413 83.8552 15.6104 88.6105 10.3796C90.9221 7.83023 93.947 5.28089 97.2493 4.17133C99.2438 3.49767 101.503 3.08819 103.603 3.37878C104.527 3.51087 105.439 3.78826 106.245 4.26379C106.958 4.67327 107.869 5.57148 108.226 6.35082C106.311 7.18299 104.607 8.70202 105.452 11.0136C106.35 13.4573 109.732 13.9856 111.436 12.0835C112.572 10.8155 112.413 8.62277 112.043 7.09052C111.647 5.36014 110.709 3.74865 109.388 2.54663Z" fill="black"/>
<path d="M41.2032 2.77276C43.528 0.606475 46.9755 -0.120021 50.2646 0.27625C54.2405 0.751775 58.0975 2.56141 61.2148 5.04471C68.6251 10.9359 72.5878 19.9445 72.9049 29.2833C72.9841 31.476 69.563 31.4892 69.4969 29.2965C69.2591 22.2825 66.8286 15.678 62.0338 10.4604C59.709 7.92427 56.6709 5.40134 53.3554 4.30499C51.3609 3.64454 49.1022 3.24828 46.9887 3.55209C46.0641 3.68418 45.1527 3.97476 44.3469 4.45029C43.6336 4.87298 42.7222 5.77121 42.3787 6.55054C43.7657 7.13174 44.9545 7.89786 45.364 9.45653C46.2226 12.7588 41.2692 14.5816 39.2086 12.3097C38.0726 11.0548 38.2047 8.86213 38.5746 7.31667C38.984 5.59949 39.9087 3.98799 41.2032 2.77276Z" fill="black"/>
<path d="M120.536 79.9121C120.562 78.7893 120.562 77.6533 120.549 76.5306C120.549 76.2796 120.549 76.0418 120.536 75.7909C120.522 74.5624 120.483 73.334 120.417 72.0923C120.404 71.9206 120.403 71.7357 120.39 71.564C120.324 70.3355 120.245 69.1071 120.153 67.8787C120.153 67.8126 120.139 67.7466 120.139 67.6937C120.034 66.386 119.888 65.0916 119.743 63.7839C119.73 63.6386 119.703 63.5065 119.69 63.3612C119.532 62.0535 119.36 60.7458 119.149 59.4513C117.299 47.7877 113.046 36.8374 104.156 28.7799C103.654 28.3176 103.139 27.8817 102.611 27.4458C95.0554 21.2243 85.4788 17.6975 75.6645 17.6711C75.6249 17.6711 75.5852 17.6711 75.5588 17.6711C75.5192 17.6711 75.4796 17.6711 75.44 17.6711C75.4268 17.6711 75.4135 17.6711 75.4003 17.6711C75.3871 17.6711 75.3739 17.6711 75.3607 17.6711C75.3211 17.6711 75.2814 17.6711 75.2418 17.6711C75.2022 17.6711 75.1626 17.6711 75.1362 17.6711C65.3087 17.6975 55.7453 21.2243 48.1897 27.4458C47.6614 27.8817 47.1462 28.3176 46.6443 28.7799C37.7546 36.8374 33.5013 47.7745 31.652 59.4513C31.4407 60.7458 31.269 62.0535 31.1105 63.3612C31.0972 63.5065 31.0708 63.6386 31.0576 63.7839C30.8991 65.0784 30.767 66.386 30.6614 67.6937C30.6614 67.7598 30.6481 67.8258 30.6481 67.8787C30.5425 69.1071 30.4632 70.3355 30.4104 71.564C30.3972 71.7357 30.3839 71.9206 30.3839 72.0923C30.3311 73.3208 30.2915 74.5492 30.2651 75.7909C30.2651 76.0418 30.265 76.2796 30.2518 76.5306C30.2386 77.6533 30.2386 78.7893 30.2651 79.9121C30.2651 80.0442 30.2651 80.1763 30.2651 80.3083C30.1726 88.5112 30.6745 96.78 31.6652 104.705C33.0125 115.339 35.8789 126.461 41.3475 135.773C44.9932 141.995 50.2239 146.869 56.2604 150.171C56.3529 150.224 56.4322 150.277 56.5246 150.329C62.4687 153.618 68.9675 155.151 75.4003 155.111C81.8331 155.138 88.332 153.618 94.2761 150.329C94.3685 150.277 94.4478 150.224 94.5403 150.171C100.577 146.869 105.808 141.995 109.453 135.773C114.922 126.474 117.788 115.352 119.135 104.705C120.139 96.78 120.628 88.5112 120.536 80.3083C120.536 80.1763 120.536 80.0442 120.536 79.9121Z" fill="#FFD217"/>
<path d="M90.7363 60.1768C100.242 60.1768 107.948 52.471 107.948 42.9654C107.948 33.4598 100.242 25.754 90.7363 25.754C81.2307 25.754 73.5249 33.4598 73.5249 42.9654C73.5249 52.471 81.2307 60.1768 90.7363 60.1768Z" fill="white"/>
<path d="M88.636 52.845C91.9407 52.845 94.6197 50.166 94.6197 46.8613C94.6197 43.5566 91.9407 40.8777 88.636 40.8777C85.3313 40.8777 82.6523 43.5566 82.6523 46.8613C82.6523 50.166 85.3313 52.845 88.636 52.845Z" fill="black"/>
<path d="M60.039 60.1767C69.5445 60.1767 77.2504 52.4709 77.2504 42.9653C77.2504 33.4598 69.5445 25.754 60.039 25.754C50.5334 25.754 42.8276 33.4598 42.8276 42.9653C42.8276 52.4709 50.5334 60.1767 60.039 60.1767Z" fill="white"/>
<path d="M62.1121 53.0711C65.4168 53.0711 68.0958 50.3922 68.0958 47.0875C68.0958 43.7827 65.4168 41.1038 62.1121 41.1038C58.8074 41.1038 56.1284 43.7827 56.1284 47.0875C56.1284 50.3922 58.8074 53.0711 62.1121 53.0711Z" fill="black"/>
<mask id="mask0_2_1115" style="mask-type:alpha" maskUnits="userSpaceOnUse" x="30" y="17" width="91" height="138">
<path d="M120.673 79.4127C120.7 78.2899 120.7 77.154 120.686 76.0312C120.686 75.7802 120.687 75.5425 120.673 75.2915C120.66 74.063 120.62 72.8346 120.554 71.5929C120.541 71.4212 120.541 71.2363 120.528 71.0646C120.462 69.8361 120.383 68.6077 120.29 67.3793C120.29 67.3132 120.277 67.2472 120.277 67.1943C120.171 65.8866 120.026 64.5922 119.881 63.2845C119.868 63.1392 119.841 63.0071 119.828 62.8618C119.669 61.5541 119.498 60.2464 119.286 58.9519C117.437 47.2883 113.184 36.338 104.294 28.2805C103.792 27.8182 103.277 27.3823 102.749 26.9464C95.1931 20.7249 85.6165 17.1981 75.8022 17.1717C75.7626 17.1717 75.7229 17.1717 75.6965 17.1717C75.6569 17.1717 75.6173 17.1717 75.5777 17.1717C75.5645 17.1717 75.5512 17.1717 75.538 17.1717C75.5248 17.1717 75.5116 17.1717 75.4984 17.1717C75.4588 17.1717 75.4191 17.1717 75.3795 17.1717C75.3399 17.1717 75.3003 17.1717 75.2739 17.1717C65.4464 17.1981 55.883 20.7249 48.3274 26.9464C47.7991 27.3823 47.2839 27.8182 46.782 28.2805C37.8923 36.338 33.639 47.2751 31.7897 58.9519C31.5784 60.2464 31.4067 61.5541 31.2482 62.8618C31.2349 63.0071 31.2085 63.1392 31.1953 63.2845C31.0368 64.579 30.9047 65.8866 30.799 67.1943C30.799 67.2604 30.7858 67.3264 30.7858 67.3793C30.6802 68.6077 30.6009 69.8361 30.5481 71.0646C30.5349 71.2363 30.5216 71.4212 30.5216 71.5929C30.4688 72.8214 30.4292 74.0498 30.4028 75.2915C30.4028 75.5425 30.4027 75.7802 30.3895 76.0312C30.3763 77.154 30.3763 78.2899 30.4028 79.4127C30.4028 79.5448 30.4028 79.6769 30.4028 79.809C30.3103 88.0118 30.8122 96.2806 31.8029 104.206C33.1502 114.839 36.0166 125.961 41.4852 135.274C45.1308 141.495 50.3616 146.369 56.3981 149.672C56.4906 149.724 56.5699 149.777 56.6623 149.83C62.6064 153.119 69.1052 154.651 75.538 154.612C81.9708 154.638 88.4697 153.119 94.4138 149.83C94.5062 149.777 94.5855 149.724 94.678 149.672C100.714 146.369 105.945 141.495 109.591 135.274C115.059 125.975 117.926 114.853 119.273 104.206C120.277 96.2806 120.766 88.0118 120.673 79.809C120.673 79.6769 120.673 79.5448 120.673 79.4127Z" fill="#FFD217"/>
</mask>
<g mask="url(#mask0_2_1115)">
<path d="M127.841 99.104C93.8671 109.737 57.4763 109.883 23.4234 99.5135L23.2384 99.4607L23.1592 76.6883L23.2517 76.7147C57.3045 87.1102 93.6954 86.9914 127.669 76.3713L127.762 76.3448L127.841 99.104Z" fill="black"/>
<path d="M127.961 135.889L127.868 135.916C93.8948 146.536 57.5039 146.655 23.451 136.259L23.3586 136.233L23.2793 113.46L23.3718 113.487C57.4247 123.882 93.8156 123.764 127.789 113.143L127.882 113.117L127.961 135.889Z" fill="black"/>
</g>
<path d="M49.6435 64.2325C49.7359 63.5192 49.9473 62.8059 50.1454 62.1851C50.5681 60.8774 51.1361 59.6225 51.8098 58.4337C52.1532 57.8261 52.5231 57.2317 52.9061 56.6505C53.2232 56.175 53.5534 55.5542 54.0685 55.2372C54.5441 54.9466 55.0856 55.2503 55.363 55.673C55.5876 56.0165 55.68 56.426 55.7725 56.8354C55.997 57.879 56.2216 58.9357 56.4462 59.9792C56.8953 62.0794 57.7803 65.1703 56.1424 66.9932C54.9932 68.2745 52.8005 68.4726 51.3343 67.6933C50.5549 67.2838 49.8813 66.5177 49.6964 65.6459C49.5775 65.1968 49.5774 64.7212 49.6435 64.2325Z" fill="#88CDEB"/>
<path d="M62.0604 74.6415C65.825 72.0658 70.2501 70.7184 74.8072 70.7449C79.3775 70.7713 83.5251 72.5281 87.4878 74.6283C89.3635 75.619 91.0411 72.7658 89.1522 71.7752C84.6611 69.4107 79.9455 67.4822 74.794 67.4426C69.6953 67.4162 64.5833 68.9088 60.3696 71.7884C58.6393 72.9772 60.2904 75.8436 62.0604 74.6415Z" fill="black"/>
</svg>
